<svg xmlns="http://www.w3.org/2000/svg" width="550.634" height="320.016" viewBox="0 0 145.689 84.671"><path d="M-671.014-1521.912c.606 2.744 1.904 5.305 4.102 7.444q2.074 2.02 4.612 2.793c4.376 1.332 10.589.202 12.311-5.434v-.003c-1.722 5.636-7.934 6.766-12.31 5.433q-2.538-.771-4.613-2.792c-2.197-2.139-3.495-4.698-4.102-7.44M-560.855-1542.526q-.08-.016-.205.244.126-.26.205-.244M-569.251-1556.63c-.923 4.032-2.122 8.217-3.125 12.348 1.003-4.131 2.202-8.316 3.125-12.349M-607.568-1552.077c-.037.033-.08.026-.11 0a.09.101 0 0 0 .11 0M-602.015-1555.742q.725-.355 1.473-.657a23 23 0 0 0-1.473.657M-595.783-1538.995q.038.063.137.078.572.092 1.055-.23.105-.069.14-.037-.035-.033-.14.037a1.43 1.43 0 0 1-1.055.23q-.1-.015-.137-.078M-653.993-1551.647a.2.2 0 0 1 .033-.12 6071 6071 0 0 0 10.398-17.254c.137-.23.378-.78.587-.962-.21.182-.45.733-.588.962a6071 6071 0 0 1-10.398 17.254.2.2 0 0 0-.032.12M-652.146-1549.613a32.107 32.107 0 0 1 0 0M-647.679-1543.665c-1.018-1.397-1.931-2.72-2.915-4.017.984 1.297 1.896 2.62 2.915 4.017M-643.716-1565.887a103 103 0 0 0-.815 4.02 336 336 0 0 0-2.8 18.095.198.224 0 0 1-.143.18.198.224 0 0 0 .144-.18 336 336 0 0 1 2.8-18.095q.37-2.033.814-4.02M-642.746-1570.091q.056.042-.007.277.063-.235.008-.277zM-625.286-1570.554a3.5 3.5 0 0 0-.51.488h-.002c.167-.184.336-.362.512-.49zM-624.914-1570.773a1.459 1.459 0 0 0 0 0M-625.256-1570.581a2 2 0 0 1 .314-.177c.006 0 .011-.01.017-.01q-.168.073-.331.187z" style="fill:currentColor;stroke-width:.242737" transform="translate(678.392 1584.325)"/><path d="M-625.282-1570.558h-.004c.375-.27.77-.4 1.179-.32.018 0 .03.012.048.016-.006 0-.01-.01-.016-.01-.012 0-.02-.01-.032-.01a1.33 1.33 0 0 0-.807.102c-.01 0-.019.011-.028.015a2 2 0 0 0-.34.2zM-628.032-1565.83c.215-.589.479-1.227.778-1.87.002-.01.004-.01.007-.016a24 24 0 0 0-.785 1.887zM-630.905-1556.302a155 155 0 0 1 2.3-7.853v-.002a155 155 0 0 0-2.3 7.855" style="fill:currentColor;stroke-width:.242737" transform="translate(678.392 1584.325)"/><path d="M-630.905-1556.3a158.44 158.44 0 0 1 2.3-7.853v-.002a155 155 0 0 0-2.3 7.853zM-632.682-1548.214a.078.078 0 0 0 0 0zM-623.184-1568.769c-.023.235-.073.483-.122.73.05-.25.098-.493.122-.73M-561.286-1569.997a100 100 0 0 0-.972 4.063q-2.958 13.6-4.601 20.315c-.117.476-.25.974-.288 1.454.038-.48.171-.978.288-1.454q1.644-6.715 4.601-20.315.444-2.043.972-4.063M-556.7-1537.957c-1.953-.612-3.744-1.624-4.041-4.255.003.022.008.037.01.06.316 2.588 2.092 3.593 4.03 4.202l.001-.01zM-573.463-1549.76q-.478.947-1.006 1.83.528-.883 1.006-1.831zM-630.666-1531.475a6.41 6.41 0 0 0 0 0M-646.006-1522.088c2.02 6.94 5.861 13.034 11.488 17.324 2.886 2.2 5.823 3.818 9.152 4.64 3.886.958 8.416.546 11.644-2.125 1.612-1.335 2.856-3.152 3.625-5.192-.77 2.04-2.013 3.855-3.625 5.19-3.228 2.67-7.758 3.082-11.644 2.125-3.329-.823-6.266-2.441-9.152-4.64-5.626-4.29-9.469-10.383-11.488-17.322M-671.627-1547.554c.554.37 1.218.612 1.837.831-.62-.22-1.283-.462-1.837-.832M-646.544-1573.224c1.167-1.195 2.478-2.209 4.014-2.923 2.397-1.115 4.204-1.33 6.453-1.833-2.249.503-4.056.718-6.453 1.832-1.536.715-2.847 1.729-4.014 2.924M-662.504-1558.108q2.126.93 4.085 2.68.106.093.178-.037-.072.13-.178.036-1.96-1.75-4.085-2.679M-673.589-1557.647a11.07 11.07 0 0 0 0 0M-677.765-1552.706l.008-.026c.145-.378.317-.744.506-1.1.016-.031.027-.064.043-.094-.606 1.12-1.019 2.366-1.151 3.624a9.6 9.6 0 0 1 .593-2.404zM-677.162-1545.376c1.135 1.576 2.934 2.379 4.669 2.018-1.735.36-3.534-.446-4.669-2.018" style="fill:currentColor;stroke-width:.242737" transform="translate(678.392 1584.325)"/><path d="M-669.66-1546.536c.066 1.489-.978 2.49-2.096 2.95q-.366.15-.737.228c-1.735.36-3.534-.442-4.669-2.018-.994-1.379-1.33-3.027-1.204-4.673-.126 1.648.209 3.297 1.204 4.676 1.297 1.797 3.461 2.593 5.406 1.791 1.12-.462 2.164-1.463 2.096-2.953zM-661.014-1550.77c-2.73-2.713-7.252-4.123-10.604-1.754-.702.495-1.182 1.476-1.255 2.44.074-.963.554-1.944 1.255-2.439 3.352-2.369 7.874-.959 10.604 1.753zM-662.828-1547.829a68.676 68.676 0 0 0 0 0M-669.25-1536.042c.103-.246.218-.484.327-.727.003-.01.005-.012.007-.017-.111.249-.228.492-.333.745zM-650.218-1522.134l.002.01-.002-.006zM-664.3-1520.903c.032.063.05.13.083.192.03.06.077.116.11.175q-.1-.183-.192-.367M-656.74-1546.997a37 37 0 0 1-1.186 2.154 151 151 0 0 0-4.723 8.602c-1.326 2.615-2.452 5.565-2.761 8.516.31-2.95 1.435-5.899 2.761-8.513a151 151 0 0 1 4.723-8.601 37 37 0 0 0 1.185-2.155z" style="fill:currentColor;stroke-width:.242737" transform="translate(678.392 1584.325)"/><path d="M-647.671-1533.55a1.4 1.4 0 0 0-.175-.664 75 75 0 0 0-8.093-11.809 6.5 6.5 0 0 1-.68-.974.071.08 0 0 0-.122 0 37 37 0 0 1-1.185 2.154 151 151 0 0 0-4.723 8.603c-1.326 2.615-2.452 5.564-2.761 8.515.309-2.95 1.435-5.9 2.761-8.515a151 151 0 0 1 4.723-8.603q.632-1.063 1.185-2.154a.071.08 0 0 1 .122 0q.29.513.68.975a75 75 0 0 1 8.093 11.808 1.4 1.4 0 0 1 .175.665zM-646.863-1525.628a41.794 41.794 0 0 0 0 0M-636.788-1517.335q.018.032.036.065c2.13 3.481 4.921 6.87 8.115 8.957 3.744 2.446 11.166 4.348 13.39-1.697-2.224 6.044-9.646 4.142-13.39 1.695-3.194-2.086-5.985-5.475-8.115-8.956zM-637.678-1518.91l.012.024q.372.704.785 1.39c.032.053.06.108.093.161a30 30 0 0 1-.89-1.575z" style="fill:currentColor;stroke-width:.242737" transform="translate(678.392 1584.325)"/><path d="m-637.958-1519.467-.026-.05c.106.21.208.422.318.63q-.006-.013-.012-.023c-.097-.184-.187-.371-.28-.557" style="fill:currentColor;stroke-width:.242737" transform="translate(678.392 1584.325)"/><path d="m-638.517-1520.636.016.037q.249.546.517 1.081.014.025.026.051a31 31 0 0 1-.559-1.168z" style="fill:currentColor;stroke-width:.242737" transform="translate(678.392 1584.325)"/><path d="m-638.784-1521.245-.015-.036q.145.342.298.682l-.016-.037q-.136-.304-.267-.61z" style="fill:currentColor;stroke-width:.242737" transform="translate(678.392 1584.325)"/><path d="m-639.272-1522.464.024.06q.213.566.449 1.123l.015.036q-.256-.605-.488-1.22zM-639.48-1523.015l-.009-.023c.076.213.16.424.24.635l-.023-.06c-.07-.184-.142-.366-.208-.551z" style="fill:currentColor;stroke-width:.242737" transform="translate(678.392 1584.325)"/><path d="m-639.659-1523.557.008.03c.056.163.104.328.162.49.003.01.006.014.01.022-.065-.179-.119-.362-.18-.542z" style="fill:currentColor;stroke-width:.242737" transform="translate(678.392 1584.325)"/><path d="M-640.416-1526.1q.334 1.304.766 2.572l-.008-.03a35 35 0 0 1-.754-2.532zM-641.11-1529.387c.032.185.053.372.086.555.138.768.305 1.527.488 2.281a39 39 0 0 1-.573-2.836" style="fill:currentColor;stroke-width:.242737" transform="translate(678.392 1584.325)"/><path d="M-641.11-1529.391c.03.186.053.374.086.56-.033-.185-.054-.371-.085-.556h-.001zM-641.556-1532.948c.08.985.204 1.962.35 2.933l-.001-.01a44 44 0 0 1-.35-2.923zM-636.077-1577.983c-2.249.503-4.056.718-6.453 1.833-4.096 1.905-6.591 5.94-9.038 9.869-1.405 2.256-2.329 3.69-3.461 5.558-.884 1.455-2.225 3.434-3.212 5.255q-.072.13-.177.036-5.226-4.665-11.634-3.502c-2.45.444-4.85 1.713-6.395 3.796q-.401.545-.731 1.15c.002 0 .004-.01.006-.01q.327-.599.725-1.138c1.545-2.083 3.945-3.352 6.395-3.796q6.408-1.163 11.634 3.501.106.095.177-.036c.987-1.82 2.328-3.8 3.212-5.254 1.132-1.87 2.056-3.303 3.46-5.56 2.448-3.928 4.943-7.963 9.039-9.868 2.397-1.115 4.204-1.33 6.453-1.833.05-.01.09.04.079.095a.069.078 0 0 0-.079-.095zM-624.914-1570.773c.261-.116.53-.157.807-.103.012 0 .02.01.031.011-.012 0-.018-.012-.031-.014a1.3 1.3 0 0 0-.41-.012q-.202.03-.397.118M-633.976-1541.87a.414.365 89.193 0 0-.125.24.414.365 89.193 0 1 .125-.24M-661.014-1550.77c-2.73-2.713-7.252-4.123-10.604-1.754-.701.495-1.181 1.476-1.255 2.438.074-.961.555-1.94 1.255-2.434 3.352-2.37 7.874-.96 10.604 1.752zM-656.62-1546.997a.071.08 0 0 0-.12 0c.026-.052.092-.053.12 0" style="fill:currentColor;stroke-width:.242737" transform="translate(678.392 1584.325)"/><path d="M-589.844-1563.35c-4.73.482-10.79 1.021-14.6 4.678-1.88 1.807-2.396 3.908-3.262 6.477a.11.11 0 0 0 .029.118c.03.026.072.033.109 0q.675-.56 1.355-1.068a28 28 0 0 1 2.768-1.834 23 23 0 0 1 2.903-1.42 22 22 0 0 1 4.76-1.32q.067-.014.051.06v.001l-.616 2.535q-.018.08-.09.082-1.965.056-4.226.947c-4.317 1.708-7.736 4.58-10.061 8.978-1.662 3.138-2.099 7.189.055 10.014q.283.371.591.677c2.669 2.652 6.616 1.695 9.035-1.004.371-.415.708-.872.997-1.362a.053.06 0 0 1 .098.035c-.005.45.042.876.143 1.256s.256.717.465.99q.157.204.355.356c.397.305.917.445 1.564.352.555-.08.986-.328 1.33-.685 1.03-1.07 1.264-3.119 1.641-4.533q.069-.263-.14-.126a1.43 1.43 0 0 1-1.056.23q-.1-.015-.137-.078v-.001q-.037-.062-.014-.171c.773-3.446 1.791-7.162 2.508-10.164q1.665-6.951 3.59-13.815.033-.114-.004-.164-.036-.053-.14-.042zm-8.135 13.097a.103.116 0 0 1 .116.138 37.4 37.4 0 0 1-1.99 7.192 20 20 0 0 1-.778 1.768 10 10 0 0 1-.788 1.316c-.934 1.285-3.07 2.898-4.49 1.696-1.376-1.162-1.077-3.302-.41-4.843a14.3 14.3 0 0 1 2.363-3.764q.48-.546 1.013-1.025a11 11 0 0 1 1.112-.88c.348-.24.711-.451 1.082-.646.109-.057.22-.107.33-.16q.423-.201.862-.36c.116-.042.23-.086.349-.124a9 9 0 0 1 1.228-.307" style="vector-effect:non-scaling-stroke" transform="translate(678.392 1584.325)"/><path d="M-582.562-1573.179q-.614.02-1.239.09c-1.112.123-2.17.302-3.161.437a23 23 0 0 1-1.438.16 10 10 0 0 1-1.332.02c-.087 0-.118.04-.093.133q.162.588.408 1.068t.572.852q.655.745 1.639 1.06c.886.287 2.058.18 3.072.194 2.817.042 5.119 1.024 6.66 3.331q.47.7.841 1.573c.06.14.13.26.185.408.157.416.27.848.361 1.286.145.697.217 1.415.22 2.142l.003.057c0 1.203-.17 2.424-.44 3.588-.18.776-.404 1.527-.652 2.231-.503 1.432-1.22 2.87-2.09 4.264-.39.623-.817 1.233-1.262 1.834-.132.179-.27.352-.406.528q-.514.662-1.063 1.298c-.144.166-.283.331-.43.493a31 31 0 0 1-3.19 3.07c-.163.135-.327.262-.492.393a26 26 0 0 1-1.246.93c-.163.113-.324.23-.487.338-.564.374-1.127.724-1.684 1.022q-.179.095-.199.063t.12-.19c.687-.797 1.939-1.56 2.217-2.66 2.08-8.202 4.217-16.354 6.204-24.613a.2.2 0 0 0-.025-.137.159.179 0 0 0-.019-.026c-.03-.034-.066-.061-.112-.061l-4.527.125c-.159 0-.26.092-.304.266l-8.356 32.922a.124.109 73.895 0 0 .006.083c.016.048.042.073.064.105.05.071.11.118.19.11a24.2 24.2 0 0 0 8.67-2.699 24 24 0 0 0 2.075-1.255 25 25 0 0 0 1.67-1.21 27 27 0 0 0 1.87-1.643c.478-.459.949-.931 1.403-1.431a33 33 0 0 0 3.89-5.3c2.808-4.712 4.71-10.89 3.416-16.467-.683-2.943-2.08-5.038-3.885-6.47-2.098-1.663-4.76-2.404-7.624-2.314zM-633.976-1541.871zM-623.588-1576.345c-2.25-.01-4.61 1.626-6.01 3.658-2.206 3.207-3.397 6.712-4.693 11.025-1.786 5.937-7.853 27.797-1.96 31.746q1.22.818 2.632.435.471-.127.963-.388a6.4 6.4 0 0 0 1.99-1.606q.266-.326.491-.692.897-1.46 1.11-3.543.285-2.83.41-5.678.007-.217-.106-.041c-.148.23-.251.64-.333.804-.895 1.782-1.887 4.158-3.202 5.562-.783.837-1.516.379-1.807-.656-.272-.958-.352-1.949-.324-2.943.027-.995.164-1.993.326-2.967a.414.365 89.193 0 1 0-.001.414.365 89.193 0 1 .125-.24v-.001a35 35 0 0 0 1.5-1.528c3.391-3.663 6.025-7.977 8.604-12.42v-.001c.047-.08.1-.12.147-.192.154-.234.31-.466.475-.621q.312-.292.188.146-.69 2.392-1.201 4.84c-.863 4.11-1.704 8.477-2.125 12.801-.201 2.084-.698 6.99 1.974 7.595 1.868.423 3.268-.858 4.318-2.36 2.606-3.726 5.093-8.69 6.837-12.167 2.236-4.456 4.257-9.287 5.71-14.363q.035-.123-.08-.11l-4.416.485q-.14.015-.185.167a41 41 0 0 1-1.437 4.045 191 191 0 0 1-4.701 10.423q-1.982 4.054-3.94 8.121-.627 1.305-.365-.149c1.1-6.13 2.36-12.193 3.638-18.276.262-1.25.619-2.423.984-3.621.018-.057-.023-.116-.077-.11l-3.76.48c-.188.021-.313-.216-.206-.392 1.064-1.72 1.966-3.76 2.63-5.6 1.146-3.177 1.63-6.744-.426-9.615-1.039-1.453-2.348-2.047-3.698-2.052zm-.93 5.452q.203-.028.41.012c.183.035.326.114.451.21a1.136 1.136 0 0 1 .353.45h.002a2 2 0 0 1 .11.378c.006.032.002.072.007.105.016.114.022.238.025.363.003.108.007.212.002.326-.002.04.003.072 0 .112-.004.05-.021.108-.026.158-.023.237-.072.48-.122.73-.066.334-.139.655-.235.99-.05.18-.093.339-.15.513-.078.246-.134.396-.215.622a28 28 0 0 1-.624 1.602 138 138 0 0 1-6.848 13.401c-.166.286-1.283 2.687-1.304 2.697-.025 0-.051 0-.08-.01q-.052-.02-.04-.086h.001a159 159 0 0 1 4.196-15.847c.117-.36.314-.966.57-1.665l.003-.01a24 24 0 0 1 .785-1.887c.06-.13.112-.251.175-.38.07-.142.145-.272.22-.41.09-.168.175-.346.27-.505.037-.06.077-.105.114-.163.083-.132.17-.247.257-.368.089-.125.172-.268.264-.38.047-.056.098-.087.146-.14.17-.187.34-.367.52-.496a.1.1 0 0 1 .025-.024q.168-.116.34-.191h.003q.195-.09.396-.118zM-677.251-1553.833c.028-.054.05-.111.078-.164-.002 0-.004.01-.006.01q-.014.031-.03.062-.02.046-.043.093zM-668.573-1537.553q-.014.031-.028.064c.177-.372.365-.734.553-1.094-.178.34-.357.68-.525 1.03M-669.314-1535.873c.124-.303.258-.598.39-.896-.108.243-.223.48-.325.727-.023.056-.042.113-.065.169M-669.602-1535.128l-.012.033c.098-.259.194-.519.298-.774-.1.245-.192.494-.286.742zM-669.948-1534.183c.002-.01.005-.014.008-.02q.156-.45.326-.893l.012-.033q-.181.47-.346.945z" style="vector-effect:non-scaling-stroke" transform="translate(678.392 1584.325)"/><path d="M-670.197-1533.412q.122-.398.257-.791c-.002.01-.005.014-.008.02q-.125.367-.24.737z" style="vector-effect:non-scaling-stroke" transform="translate(678.392 1584.325)"/><path d="m-670.197-1533.412.01-.035c-.059.187-.126.371-.181.56.052-.178.115-.351.17-.528zM-650.372-1522.451c-.004-.01-.008-.014-.012-.022.056.116.12.226.168.346l-.002-.01c-.045-.11-.103-.211-.154-.318z" style="vector-effect:non-scaling-stroke" transform="translate(678.392 1584.325)"/><path d="M-650.73-1523.114c.002 0 .003.01.005.01.127.2.236.414.34.632l.013.022a6 6 0 0 0-.358-.663z" style="vector-effect:non-scaling-stroke" transform="translate(678.392 1584.325)"/><path d="M-650.966-1523.444c-.004-.01-.008-.01-.012-.015.086.116.175.23.253.355-.002 0-.003-.01-.005-.01-.073-.116-.155-.222-.236-.33z" style="vector-effect:non-scaling-stroke" transform="translate(678.392 1584.325)"/><path d="M-651.398-1523.96c.004 0 .007.01.01.014.147.152.281.315.41.487.004.01.009.01.012.015a5 5 0 0 0-.432-.516z" style="vector-effect:non-scaling-stroke" transform="translate(678.392 1584.325)"/><path d="M-651.696-1524.243c-.004 0-.01-.01-.014-.01q.168.146.323.307c-.004 0-.007-.01-.012-.013a5 5 0 0 0-.297-.283z" style="vector-effect:non-scaling-stroke" transform="translate(678.392 1584.325)"/><path d="M-652.227-1524.637c.008.01.016.012.024.018.172.112.337.231.493.366.004 0 .01.01.014.01a4.5 4.5 0 0 0-.53-.394z" style="vector-effect:non-scaling-stroke" transform="translate(678.392 1584.325)"/><path d="M-652.563-1524.843c-.005 0-.01 0-.015-.01.13.068.252.15.375.23-.008-.01-.016-.012-.024-.018-.11-.071-.219-.145-.336-.206zM-653.229-1525.108q.025.013.048.02l-.048-.016z" style="vector-effect:non-scaling-stroke" transform="translate(678.392 1584.325)"/><path d="M-653.58-1525.22c.14.03.266.088.4.131q-.025-.013-.049-.019c-.113-.036-.22-.084-.337-.11h-.013zM-654.688-1525.335c-.083 0-.163.023-.245.032.082-.01.163-.027.245-.03.058 0 .109.015.166.015-.058 0-.107-.02-.166-.017" style="vector-effect:non-scaling-stroke" transform="translate(678.392 1584.325)"/><path d="M-654.688-1525.335c.059 0 .108.017.166.017.327 0 .644.03.943.098h.013a4.4 4.4 0 0 0-1.122-.116zM-655.279-1525.257h.018c.108-.024.218-.031.328-.043.083-.01.162-.03.245-.032q-.3.014-.59.078z" style="vector-effect:non-scaling-stroke" transform="translate(678.392 1584.325)"/><path d="M-655.468-1525.2q-.037.014-.072.025c.093-.03.184-.064.28-.085h-.019c-.064.014-.126.04-.189.057z" style="vector-effect:non-scaling-stroke" transform="translate(678.392 1584.325)"/><path d="M-655.844-1525.07c.006 0 .013 0 .02-.01.092-.039.188-.068.284-.098a1 1 0 0 1 .072-.024 3 3 0 0 0-.376.13z" style="vector-effect:non-scaling-stroke" transform="translate(678.392 1584.325)"/><path d="M-656.049-1524.966q-.02.014-.04.023c.087-.047.173-.095.264-.134-.006 0-.013 0-.02.01-.07.03-.136.068-.204.104z" style="vector-effect:non-scaling-stroke" transform="translate(678.392 1584.325)"/><path d="M-656.365-1524.782c.007 0 .015-.01.022-.012q.124-.08.253-.148.02-.014.041-.023a3 3 0 0 0-.316.184z" style="vector-effect:non-scaling-stroke" transform="translate(678.392 1584.325)"/><path d="M-656.56-1524.636c-.009.01-.017.013-.025.02q.117-.095.242-.178c-.007 0-.015.01-.022.012a3 3 0 0 0-.196.145z" style="vector-effect:non-scaling-stroke" transform="translate(678.392 1584.325)"/><path d="M-656.833-1524.397c.007-.01.014-.012.02-.018a3 3 0 0 1 .228-.2q.012-.013.024-.022a3 3 0 0 0-.272.24z" style="vector-effect:non-scaling-stroke" transform="translate(678.392 1584.325)"/><path d="M-657.002-1524.22c-.004 0-.007.01-.011.014q.096-.11.2-.21c-.006.01-.013.012-.02.018a3 3 0 0 0-.17.177z" style="vector-effect:non-scaling-stroke" transform="translate(678.392 1584.325)"/><path d="M-657.229-1523.925c.005-.01.01-.013.015-.02a3 3 0 0 1 .2-.26c.005 0 .008-.01.012-.015a3 3 0 0 0-.227.295zM-657.364-1523.724c-.002 0-.003.01-.005.01.047-.08.102-.155.155-.23-.005.01-.01.013-.015.02-.046.066-.094.13-.135.2z" style="vector-effect:non-scaling-stroke" transform="translate(678.392 1584.325)"/><path d="M-657.544-1523.357c.003-.01.006-.012.008-.017.052-.116.104-.232.167-.34.002 0 .003-.01.005-.01a3 3 0 0 0-.18.367zM-657.782-1522.58q.05-.299.148-.572-.009.02-.018.04-.085.256-.13.532zM-636.788-1517.335c-.033-.053-.061-.108-.093-.161.045.075.083.154.13.229 2.13 3.48 4.92 6.87 8.114 8.956 3.744 2.447 11.166 4.348 13.39-1.696v-.003c-2.224 6.044-9.646 4.142-13.39 1.696-3.194-2.087-5.985-5.476-8.115-8.957z" style="vector-effect:non-scaling-stroke" transform="translate(678.392 1584.325)"/><path d="M-635.998-1577.885c.011-.055-.03-.105-.079-.095-2.249.503-4.056.718-6.453 1.833-1.536.714-2.847 1.727-4.015 2.923-1.946 1.992-3.494 4.49-5.024 6.945-1.404 2.256-2.328 3.69-3.46 5.558-.884 1.455-2.225 3.434-3.212 5.255q-.072.131-.178.036-1.96-1.75-4.085-2.678a12.37 12.37 0 0 0-4.418-1.04 13 13 0 0 0-1.547.017 14 14 0 0 0-1.583.2c-2.144.389-4.25 1.41-5.777 3.054a9 9 0 0 0-.618.742 10 10 0 0 0-.726 1.137c-.029.053-.05.112-.078.165-.187.357-.362.722-.506 1.1l-.008.026a9.6 9.6 0 0 0-.601 2.657c-.125 1.647.21 3.295 1.205 4.673 1.296 1.797 3.46 2.593 5.405 1.791 1.119-.461 2.162-1.462 2.095-2.95q-.005-.143-.129-.184c-1.238-.439-2.656-.97-3.014-2.43a3 3 0 0 1-.068-.938c.073-.963.553-1.945 1.254-2.44 3.352-2.369 7.874-.959 10.604 1.754a.106.094 83.183 0 1 .013.142c-2.513 3.643-4.693 7.687-6.828 11.619-.073.133-.137.274-.208.41.07-.135.136-.275.208-.407 1.601-2.949 3.227-5.961 5.001-8.82a69 69 0 0 1 1.827-2.798c-2.513 3.642-4.693 7.686-6.828 11.618-.072.132-.137.272-.208.406-.193.368-.385.738-.566 1.118-.11.23-.209.466-.313.7-.136.303-.273.606-.4.916-.104.255-.2.515-.298.774q-.17.443-.326.892-.134.394-.257.792c-.892 2.842-1.372 5.823-1.201 8.701.225 3.784 1.557 7.384 4.487 10.236q2.073 2.02 4.612 2.793c4.376 1.332 10.588.203 12.31-5.434.144-.468.238-.95.286-1.434a7.7 7.7 0 0 0-.161-2.497c-.005-.02-.014-.038-.019-.058a7 7 0 0 0-.332-1.023c-.05-.12-.113-.23-.169-.345a6 6 0 0 0-.34-.632c-.079-.124-.167-.238-.254-.354a4.854 4.854 0 0 0-.732-.794 4.5 4.5 0 0 0-.493-.367c-.123-.08-.244-.162-.375-.23a4 4 0 0 0-.603-.24c-.132-.043-.259-.1-.398-.131a4.5 4.5 0 0 0-.943-.098c-.057 0-.108-.016-.165-.014-.083 0-.164.02-.245.029-.11.012-.22.02-.329.043-.095.021-.186.056-.28.085-.095.031-.191.059-.283.098s-.178.087-.265.134a3 3 0 0 0-.254.148 3.3 3.3 0 0 0-.469.379 3 3 0 0 0-.2.21q-.107.125-.201.26c-.054.076-.108.15-.155.23a3 3 0 0 0-.167.34c-.033.075-.071.145-.099.223a3.4 3.4 0 0 0-.148.572q-.006.03-.014.057-.053.35-.035.726a.288.325 0 0 0 .344.297c1.003-.227 2.553.39 2.673 1.67v.001q.028.275-.04.589c-.524 2.363-3.236 2.849-5.011 2.312q-2.218-.67-3.408-2.28-.018-.026-.036-.053c.014.018.022.038.036.056q1.19 1.61 3.408 2.28-2.218-.67-3.408-2.28c-.014-.018-.022-.038-.036-.056a11 11 0 0 1-.798-1.275c-.033-.06-.079-.116-.11-.175-.033-.063-.05-.13-.082-.193a11 11 0 0 1-.57-1.335l-.023-.07a11 11 0 0 1-.357-1.39c-.012-.061-.036-.122-.047-.184-.012-.064-.011-.13-.022-.194a13.7 13.7 0 0 1-.092-3.652c.31-2.95 1.435-5.9 2.761-8.515a151 151 0 0 1 4.723-8.602q.633-1.064 1.185-2.155a.071.08 0 0 1 .122 0q.29.512.68.974a75 75 0 0 1 8.094 11.809q.168.307.174.665c.019 1.438.105 2.864.257 4.27 1.064 9.864 5.395 18.789 12.896 24.508 2.887 2.2 5.823 3.818 9.152 4.641 3.887.957 8.416.545 11.644-2.125 2.58-2.136 4.216-5.502 4.475-9.048a14 14 0 0 0 .026-1.524c-.21-5.154-3.768-9.427-8.375-10.122-3.32-.504-6.672.837-8.358 4.277q-.765 1.56-.685 3.02.081 1.458 1.008 2.82c1.44 2.11 4.315 2.136 5.543-.317.096-.192.139-.37.142-.537.02-.999-1.387-1.58-1.318-2.332a.75.75 0 0 1 .17-.395c1.757-2.262 4.71-.778 5.721 1.565q.514 1.193.546 2.4.016.607-.089 1.217t-.33 1.224c-2.225 6.044-9.647 4.143-13.39 1.696-3.194-2.087-5.986-5.476-8.116-8.957-.045-.075-.084-.153-.129-.229q-.411-.685-.785-1.39c-.11-.208-.212-.42-.318-.631a31 31 0 0 1-.815-1.763 32 32 0 0 1-.45-1.122c-.08-.212-.163-.422-.24-.635-.057-.162-.106-.327-.161-.49a35 35 0 0 1-.765-2.572c-.04-.15-.083-.3-.12-.45a39 39 0 0 1-.575-2.842q-.05-.31-.096-.623a44 44 0 0 1-.35-2.933c-.273-3.355-.178-6.773.198-10.144 1.148-10.27 2.469-17.904 4.59-30.618q.35-2.1.77-4.175zm-6.748 7.794q.056.042-.006.277a101 101 0 0 0-1.778 7.947 336 336 0 0 0-2.8 18.095.198.224 0 0 1-.143.18.198.224 0 0 1-.206-.073c-1.019-1.396-1.931-2.72-2.915-4.017a41 41 0 0 0-1.551-1.93 32 32 0 0 0-1.792-1.927q-.1-.102-.023-.227 5.211-8.617 10.397-17.254c.138-.23.379-.781.588-.963q.174-.148.229-.108z" style="vector-effect:non-scaling-stroke" transform="translate(678.392 1584.325)"/><path d="m-683.506-1266.79-4.572.987q-.195.042-.246.26a4326 4326 0 0 0-4.138 18.395q-.615 2.771-1.318 5.517-.827 3.23-3.476 4.572c-.643.325-1.328.293-1.754-.351-.266-.404-.324-.867-.285-1.348.038-.48.17-.979.287-1.454q1.644-6.716 4.602-20.315v-.008q-2.958 13.6-4.602 20.315c-.116.475-.25.974-.288 1.454.038-.48.171-.979.288-1.454q1.644-6.715 4.601-20.315a100 100 0 0 1 .972-4.063c.015-.062-.03-.123-.088-.114l-4.593.763a.519.463 89.829 0 0-.376.376 981 981 0 0 0-2.908 12.35c-.923 4.033-2.121 8.218-3.124 12.35-.574 2.369-.497 5.01 1.476 6.544q1.11.864 2.514.883a6.5 6.5 0 0 0 2.315-.393 7.3 7.3 0 0 0 2.016-1.14 9.6 9.6 0 0 0 1.682-1.73c.5-.658.94-1.389 1.312-2.165q.126-.261.206-.243.08.016.112.311c.003.02.009.034.011.052-.003-.022-.008-.037-.01-.059.297 2.631 2.089 3.642 4.041 4.255.347-1.872.811-3.876.798-5.711a.444.5 0 0 0-.588-.468c-.016.01-.03 0-.045 0a.5.5 0 0 1-.323.01c-.104-.04-.165-.163-.14-.284l5.837-27.547c.028-.134-.076-.256-.196-.23zm-9.496 29.66q.08.018.112.313-.033-.294-.113-.312-.079-.016-.204.244h-.001q.126-.26.205-.244z" style="vector-effect:non-scaling-stroke" transform="translate(810.54 1278.928)"/><path d="M-688.85-1232.553c-1.937-.608-3.713-1.613-4.03-4.202.383 3.319 1.21 5.187 3.673 5.794.05.012.24-.831.226-.885.037-.227.089-.475.132-.707" style="vector-effect:non-scaling-stroke" transform="translate(810.54 1278.928)"/><path d="M-560.854-1542.526q.079.018.112.312-.034-.295-.112-.312" style="fill:currentColor;stroke-width:.280818" transform="translate(678.392 1584.325)"/><path d="m-673.798-1278.926-4.884 1.094a.341.384 0 0 0-.267.29 6510 6510 0 0 0-3.488 17.253c-.632 3.154-1.476 6.769-2.161 10.176-.62 3.067-1.572 7.049-2.175 10.628-.583 3.448 1.055 7.948 3.98 9.396.152-2.247.454-4.674.821-7.163.01-.755.134-1.655.305-2.62.172-.966.39-1.998.587-3.02q.027-.142.157-.154c.513-.046.958.01 1.333.155a9.5 9.5 0 0 1 3.661 2.548c1.02 1.152 1.758 2.56 2.157 4.15-.399-1.591-1.137-3-2.157-4.153 1.631 1.843 2.543 4.34 2.493 7.192-.06 3.534-1.454 6.692-3.592 9.075a14.1 14.1 0 0 1-4.52 3.366c-4.553 2.12-10.414 1.359-15.081.155-6.252-1.613-12.224-3.341-18.79-4.626a39.4 39.4 0 0 0-6.471-.727q-3.209-.09-6.362.37a12.4 12.4 0 0 0-2.022.49c-2.13.695-4.45 1.98-5.775 3.58-4.099 4.945-1.974 11.63 3.434 13.43 3.056 1.017 6.136.701 9.176-.506a48 48 0 0 0 2.5-1.08 48.5 48.5 0 0 0 5.681-3.15c.481-.31.966-.611 1.439-.938.032-.022.042-.06.043-.097a.103.116 0 0 0-.002-.026c-.007-.036-.024-.071-.06-.086-2.497-1.029-6.146-1.744-8.72-.728q-1.715.677-3.416 1.37c-2.024.819-5.651 1.042-6.485-1.861-.952-3.314 3.228-5.126 5.4-5.47a27.2 27.2 0 0 1 7.472-.137c6.985.835 13.817 2.93 20.638 4.758 5.601 1.502 12.594 2.643 18.253.724 7.642-2.59 13.232-10.573 12.491-19.82-.315-3.953-2.418-7.89-5.154-10.37a.27.27 0 0 1 .01-.4c2.716-2.172 5.004-4.119 6.71-7.439q.392-.76.697-1.515.61-1.51.88-3.003.134-.746.183-1.487c.463-6.992-4.96-11.914-10.853-9.514a.05.057 0 0 1-.066-.066l2.027-10.015c.005-.018-.01-.034-.027-.03zm-.365 14.26.02.001c.258-.01.513.01.765.04.08.01.157.028.236.043q.281.054.55.147.116.037.228.08c.241.1.474.218.69.37v-.001c.239.168.46.368.655.603q.296.35.507.805c.269.581.392 1.238.422 1.916q.007.085.01.17a8 8 0 0 1-.072 1.11 9 9 0 0 1-.19.982c-.039.158-.063.318-.109.472-.138.47-.302.92-.492 1.328-.221.475-.464.919-.717 1.348q-.118.199-.242.392-.288.458-.6.886-.125.176-.255.347c-.29.376-.59.741-.904 1.084-.476.518-.987.992-1.513 1.447q-.19.165-.384.325c-.525.434-1.063.853-1.625 1.245a43 43 0 0 1-2.637 1.682q-.064.04-.087.018c.008.01.028-.01.043-.01-.014 0-.036.016-.043.01q-.024-.02-.008-.1l3.116-15.665a.38.38 0 0 1 .146-.232q.27-.191.567-.341.298-.15.615-.256a4.8 4.8 0 0 1 1.308-.245zm-6.76 21.617c.513-.046.958.01 1.333.155-.375-.145-.82-.2-1.333-.155q-.13.014-.157.155.027-.141.157-.155m-7.503 4.286a.4.4 0 0 1 .187.086c.11.088.186.232.188.402a.444.5 0 0 0-.587-.467c-.017.01-.03 0-.046 0 .016 0 .03.01.045 0a.4.4 0 0 1 .213-.021zm-.258.017a.5.5 0 0 1-.322.01c.102.035.21.023.322-.01" style="vector-effect:non-scaling-stroke" transform="translate(810.54 1278.928)"/><path d="M-688.426-1238.763a.36.36 0 0 0-.212.02.444.5 0 0 1 .399.066.4.4 0 0 0-.187-.086M-676.653-1263.823zM-677.183-1249.525a43 43 0 0 1-2.637 1.68c-.021.013-.03.01-.044.01.015 0 .023 0 .044-.01.905-.537 1.79-1.09 2.637-1.681z" style="fill:currentColor;stroke-width:.242737" transform="translate(810.54 1278.928)"/><path d="M-675.558-1250.77c-.525.434-1.063.852-1.625 1.244a43 43 0 0 1-2.637 1.68c-.021.016-.03.01-.044.01.015 0 .023 0 .044-.01.905-.537 1.79-1.088 2.637-1.68.562-.392 1.1-.81 1.625-1.245zM-673.772-1236.193q.119.475.197.972a10 10 0 0 0-.197-.972M-673.462-1234.206a12 12 0 0 0-.113-1.018c.035.223.054.453.076.682.01.112.03.22.037.333zM-673.52-1231.847q.073-.642.084-1.304a14 14 0 0 1-.083 1.304" style="fill:currentColor;stroke-width:.242737" transform="translate(810.54 1278.928)"/><path d="M-688.24-1238.677a.444.5 0 0 1 .189.403.52.52 0 0 0-.188-.403M-687.97-1232.316c.252.066.504.147.752.208a.066.075 0 0 0 .077-.095c-.225-.752-.37-1.518-.51-2.285-.113.7-.22 1.428-.32 2.172" style="vector-effect:non-scaling-stroke" transform="translate(810.54 1278.928)"/><path d="M-682.794-1230.089c-2.924-1.448-4.562-5.948-3.98-9.396-.185 1.098-.543 2.92-.878 4.997.142.767.286 1.533.51 2.285a.066.075 0 0 1-.076.095c-.248-.06-.5-.142-.752-.208-.707 5.333-.86 11.365 2.425 11.952.512.091 1.786-.177 2.892-.64 1.892-.791 3.576-1.948 2.17-1.383-2.248.902-2.645-2.767-2.31-7.702zM-681.08-1242.891c-.395 2.042-.872 4.128-.892 5.639.285-1.93.585-3.887.892-5.64M-680.923-1243.05v.001c.513-.046.958.01 1.333.155q-.563-.224-1.333-.155M-677.183-1249.525a43 43 0 0 1-2.637 1.68c-.021.014-.03.01-.044.01-.015 0-.036.017-.043.01q.023.023.087-.017c.905-.538 1.79-1.09 2.637-1.682z" style="vector-effect:non-scaling-stroke" transform="translate(810.54 1278.928)"/><path d="M-688.684-1238.746a.53.53 0 0 1-.322.01.5.5 0 0 0 .322-.01M-671.674-1263.985a3.405 3.405 0 0 0 0 0zM-674.163-1264.665" style="fill:currentColor;stroke-width:.280818" transform="translate(810.54 1278.928)"/><path d="M-623.567-1570.59h.003l-.002-.003zM-623.668-1570.676h-.004a1 1 0 0 1 .109.091h-.003a1 1 0 0 0-.102-.085z" style="fill:currentColor;stroke-width:.280818" transform="translate(678.392 1584.325)"/><path d="M-624.076-1570.865c.006 0 .01.01.016.01.152.036.278.1.388.18h.004a1.1 1.1 0 0 0-.408-.19zM-625.281-1570.558a2 2 0 0 1 .339-.2 2 2 0 0 0-.314.176.1.1 0 0 1-.025.025zM-625.802-1570.061h.004a3.5 3.5 0 0 1 .513-.49h.004c-.18.13-.35.31-.52.497z" style="fill:currentColor;stroke-width:.280818" transform="translate(678.392 1584.325)"/><path d="M-626.218-1569.533c.136-.192.276-.372.42-.531-.002 0-.003 0-.005.01a6 6 0 0 0-.406.512c-.003 0-.006.01-.009.013zM-626.464-1569.182h-.002c.08-.126.165-.237.247-.354h-.003c-.08.115-.164.224-.242.348z" style="fill:currentColor;stroke-width:.280818" transform="translate(678.392 1584.325)"/><path d="M-626.469-1569.174c.002 0 .003-.01.005-.01.08-.126.163-.235.246-.351.002 0 .004-.01.006-.01-.087.122-.174.236-.257.368z" style="fill:currentColor;stroke-width:.280818" transform="translate(678.392 1584.325)"/><path d="M-626.853-1568.505c-.003.01-.006.013-.01.019.128-.24.26-.474.398-.693-.002 0-.004 0-.005.01-.132.21-.258.434-.38.663h-.004z" style="fill:currentColor;stroke-width:.280818" transform="translate(678.392 1584.325)"/><path d="M-627.072-1568.095c.002 0 .004-.01.005-.01.065-.132.135-.253.204-.382.003-.01.006-.013.01-.019-.074.138-.149.268-.22.41z" style="fill:currentColor;stroke-width:.280818" transform="translate(678.392 1584.325)"/><path d="M-627.254-1567.7c.063-.136.12-.272.187-.405-.002 0-.004.01-.005.01-.062.125-.116.253-.175.38-.002.01-.004.01-.007.014zM-623.69-1566.536c-.072.221-.143.417-.217.622.082-.226.138-.376.216-.622M-623.158-1569.039c-.004.087-.017.18-.026.27.005-.05.023-.108.026-.158.003-.04-.003-.073 0-.112M-623.297-1570.198c.056.139.088.301.112.47-.005-.033 0-.073-.007-.105q-.037-.195-.105-.36zM-623.301-1570.215s0 .01.002.01l-.003-.008zM-623.573-1570.6c.003 0 .004.01.007.01.104.101.194.218.256.361.002 0 .005.01.006.01a1.1 1.1 0 0 0-.27-.38z" style="fill:currentColor;stroke-width:.280818" transform="translate(678.392 1584.325)"/><path d="M-623.657-1570.67c-.003 0-.008 0-.01-.01q.053.038.1.084c-.003 0-.004-.01-.007-.01a1 1 0 0 0-.083-.07z" style="fill:currentColor;stroke-width:.280818" transform="translate(678.392 1584.325)"/><path d="M-624.518-1570.893q.203-.028.41.012c.014 0 .02.012.032.014a1.1 1.1 0 0 1 .419.2 1.05 1.05 0 0 0-.45-.21 1.3 1.3 0 0 0-.41-.013z" style="fill:currentColor;stroke-width:.280818" transform="translate(678.392 1584.325)"/></svg>