<?xml version="1.0" encoding="UTF-8" standalone="no"?>
<svg
   height="598.85"
   width="598.85"
   version="1.1"
   id="svg117"
   sodipodi:docname="ALVADUB_VINYL_03.svg"
   inkscape:version="1.2 (dc2aeda, 2022-05-15)"
   xmlns:inkscape="http://www.inkscape.org/namespaces/inkscape"
   xmlns:sodipodi="http://sodipodi.sourceforge.net/DTD/sodipodi-0.dtd"
   xmlns="http://www.w3.org/2000/svg"
   xmlns:svg="http://www.w3.org/2000/svg">
  <defs
     id="defs121" />
  <sodipodi:namedview
     id="namedview119"
     pagecolor="#505050"
     bordercolor="#eeeeee"
     borderopacity="1"
     inkscape:showpageshadow="0"
     inkscape:pageopacity="0"
     inkscape:pagecheckerboard="0"
     inkscape:deskcolor="#505050"
     showgrid="false"
     inkscape:zoom="12.632221"
     inkscape:cx="488.67101"
     inkscape:cy="378.87242"
     inkscape:window-width="1680"
     inkscape:window-height="997"
     inkscape:window-x="0"
     inkscape:window-y="25"
     inkscape:window-maximized="1"
     inkscape:current-layer="svg117" />
  <g
     fill="none"
     stroke-width="0"
     id="g111">
    <path
       d="M569.77 432.204c8.02-16.931 16.44-40.204 21.27-62.126 10.98-49.915 10.93-103.716-3.66-152.684q-2.69-9.001-7.29-20.976c-20-51.953-50.3-94.22-91.3-127.62-9.96-8.11-19.57-15.838-30.48-22.316-26.46-15.68-54.29-28.973-83.52-36.543q-57.94-15.005-116.5-7.356C203.83 9.68 151.18 34.26 107.05 70.679q-34.83 28.748-60.95 70-6.88 10.871-11.97 21.37c-3.86 7.953-9.52 19.612-13.2 28.906Q7.39 225.087 2.77 258.567c-6.5 47.053-1.53 98.478 14.58 143.943 32.53 91.831 105.2 153.923 187.99 180.418q29.44 9.418 54.71 12.944c59.06 8.223 119.38-3.075 174.23-28.906 57.06-26.878 106.13-72.794 135.49-134.762"
       vector-effect="non-scaling-stroke"
       id="path81" />
    <path
       d="M388.69 58.705c20.24 6.95 40.03 16.244 58.16 28.556q7.66 5.193 15.22 10.578 3.55 2.523 6.99 5.216.12.101.21-.034h.01q.09-.135-.02-.248c-22.64-22.18-53.01-37.76-81.46-48.518q-9.5-3.593-19.22-6.184Q297.15 29.02 225.9 49.4c-24.19 6.905-45.88 17.787-67.2 31.688-15.31 9.992-29.85 22.124-43.67 34.674q-6.55 5.947-12.35 12.808-.04.056-.01.067h.13q.12.012.13 0c11.34-11.524 23.12-21.257 38-32.274 36.48-27.002 78.57-44.09 121.7-50.917q9.56-1.52 19.9-2.016c29.23-1.42 56.04 1.171 84.55 8.414 7.18 1.825 14.44 4.405 21.61 6.86"
       vector-effect="non-scaling-stroke"
       id="path83" />
    <path
       d="M214.58 61.33q-.07-.519.54-.744.22-.079.12-.315-.07-.158-.21-.248-.17-.124-.46-.045-2 .53-3.93 1.34c-9.39 3.92-18.13 6.297-27.86 12.065-9.93 5.88-20.69 11.163-29.72 17.686q-15.25 11.017-33.78 27.497-5.84 5.194-10.97 11.243-.04.045-.01.09.01.023.02.056.04.09.1.034c10.18-9.71 20.76-18.835 37.52-31.823 4.98-3.864 11.3-8.854 16.8-11.367 1.39-.63 2.98-1.982 3.93-2.534q9.22-5.317 18.49-10.522 8.37-4.708 9.03-4.99a13.08.388-23.389 0 1 8.83-3.503q5.64-1.679 11.03-4.213.2-.09.35.09l.18.203"
       vector-effect="non-scaling-stroke"
       id="path85" />
    <path
       d="M214.58 61.33c-5.35 2.658-11.36 4.382-16.24 6.916Q175.5 80.12 154.2 95.203c-5.22 3.695-10.18 7.007-15.23 11.378q-4.79 4.156-9.75 8.065-.05.034-.02.08l.15.236q.15.236.35.067c19.7-16.323 37.71-27.599 57.77-38.605 3.12-1.712 6.73-3.03 10.09-4.64 10.29-4.935 21.49-8.36 32.23-11.829 48.27-15.58 104.46-13.653 151.57 3.39q22.09 7.988 34.58 14.544 20.2 10.611 29.97 17.765 11.2 8.212 22.32 16.514.11.079.18-.045h.01q.07-.113-.03-.203c-22.15-19.713-46.1-35.079-72.1-47.425q-2.89-1.374-6.14-2.523-5.72-2.017-11.41-4.09C355.08 49.254 329.9 45.3 305.05 45.04q-20.72-.214-32.25.97-19.53 2.016-43.49 9.236c-3.41 1.026-10.4 2.681-14.73 6.084"
       vector-effect="non-scaling-stroke"
       id="path87" />
    <path
       d="M398.57 63.661q-.27-.416-.74-.428-.47-.022-.1.316c2.18 1.96 4.51 2.365 6.96 3.728q1.12.62 2.93 1.408 26.05 11.3 50.93 31.013c2.19 1.735 4.76 4.54 7.47 6.42a.04.045 0 0 0 .04-.067c-19.9-19.263-41.13-31.406-66.73-41.748q-.47-.191-.76-.642M81.4 237.727c8.34-29.075 22.8-55.198 40.86-78.021q7.96-10.06 11.12-13.417c33.72-35.788 77.94-57.879 123.34-66.395q34-6.376 65.08-3.515 43.58 4.022 84.93 24.58c35.9 17.844 70.22 49.228 91.47 86.763q.08.146.22.067v-.01q.14-.08.07-.237c-2.15-5.182-4.05-10.668-6.99-15.276-16.18-25.357-35.94-46.501-60.64-63.354-21.87-14.914-46.35-28.083-70.05-35.18C317.33 60.7 270.34 62.85 227.8 77.89c-31.27 11.04-62.9 30.415-87.56 54.815C111.98 160.664 89 196.7 80.77 237.749q-.01.057.03.068l.3.09q.23.079.3-.18"
       vector-effect="non-scaling-stroke"
       id="path89" />
    <path
       d="M120.96 197.657c-.59 1.307-1.58 2.884-2.13 4.36q-.36.991.18.113c20.19-33.198 46.83-60.425 79.02-77.954 25.24-13.754 53.87-23.588 81.98-26.09 49.8-4.426 99.3 8.314 141.91 37.817 16.41 11.366 30.1 26.766 42.7 41.196q2.67 3.064 5.73 7.57.12.18.29.056l.01-.011q.16-.113.06-.315c-9.67-19.24-24.5-35.631-40.55-48.44q-10.53-8.403-13.39-10.262c-48.51-31.564-105.93-43.336-161.05-30.73q-13.57 3.097-19.19 4.967c-35.56 11.84-69.45 32.973-94.63 64.109q-13.24 16.368-20.94 33.614m366.03-76.477q-2.41-2.174-4.9-4.213-.12-.102-.21.034h-.01q-.08.135.09.293 14.3 13.822 25.99 30.471.07.102.11 0 .02-.067-.02-.146c-6.14-9.936-11.75-18.024-21.05-26.439"
       vector-effect="non-scaling-stroke"
       id="path91" />
    <path
       d="M365.5 139.53q3.13 1.172 14.66 6.162.24.102.34-.169l.13-.326a.278.307-8.185 0 0-.13-.395q-10.03-5.666-21.98-9.845c-41.72-14.577-88.33-13.09-128.69 6.297q-3.07 1.464-5.52 3.053-1.73 1.115.23.698c1.29-.27 3.11-1.453 4.42-1.994 17.77-7.22 34.61-12.706 53.36-14.261 28.25-2.354 56.46.732 83.18 10.78"
       vector-effect="non-scaling-stroke"
       id="path93" />
    <path
       d="M333.03 154.288c29.02 6.206 56.59 21.966 80.8 40.463q1.69 1.284.43-.518c-4.7-6.76-12.75-13.045-19.12-17.72-53.71-39.46-119.68-43.606-176.26-7.378-7.4 4.73-16.33 11.422-20.86 19.747q-.37.676.18.18c11.73-10.307 25.35-17.742 39.12-23.994q46.77-21.257 95.71-10.78m68.05-3.38q-.89-.518-.2.304.59.71 1.62 1.476 15.43 11.344 28.45 26.022 7.56 8.527 14.58 17.54.71.9.29-.203c-1.18-3.2-3.14-5.655-5.1-8.427q-16.2-22.912-39.64-36.712m108.6 144.022q2.91-.26 5.04.586c14.56 5.756 23.56 19.567 23.26 36.813-.36 21.37-13.64 39.1-30.66 47.02-17.21 8.01-39.36 5.137-57 .586-23.63-6.094-46.2-12.628-71.02-17.483q-24.66-4.822-48.5-1.352c-9.43 1.374-22.79 7.322-29.47 15.388-15.49 18.688-7.46 43.955 12.98 50.76 11.55 3.84 23.19 2.647 34.68-1.916q19.14-7.626 36.36-19.533a.39.44 0 0 0-.07-.788c-9.44-3.887-23.23-6.59-32.96-2.75q-6.48 2.558-12.91 5.172c-7.65 3.097-21.36 3.942-24.51-7.03-3.6-12.526 12.2-19.375 20.41-20.67q14.08-2.209 28.24-.52c26.4 3.155 52.22 11.074 78 17.98 21.17 5.677 47.6 9.992 68.99 2.737 28.88-9.79 50.01-39.957 47.21-74.912-1.19-14.937-9.14-29.818-19.48-39.19a.84.946 0 0 1 .04-1.51c10.26-8.212 18.91-15.568 25.36-28.117q5.91-11.49 6.65-22.699c1.75-26.427-18.75-45.025-41.02-35.957a.19.214 0 0 1-.25-.248l7.66-37.85a.08.09 0 0 0-.1-.113l-18.46 4.134a1.29 1.453 0 0 0-1.01 1.093q-6.61 32.477-13.18 65.213c-2.39 11.918-5.58 25.582-8.17 38.458-2.34 11.592-5.94 26.642-8.22 40.17-2.63 15.569 6.62 37.051 21.97 37.423 8.65.202 16.95-4.698 18.6-14.859q.82-5.046-3.11-9.631-.25-.282-.34.101c-1.12 4.427-4.76 6.241-8.66 6.962-5.24.957-8.64-1.949-10-7.345-1.37-5.452 1.16-15.703 3.06-25.537q.1-.541.59-.586"
       vector-effect="non-scaling-stroke"
       id="path95" />
    <path
       d="M365.47 186.888q2.13 1.15 3.71 1.825.89.394 1.46-.473l1.57-2.366a.843.954 2.463 0 0-.27-1.408c-31.38-19.004-67.02-25.92-101.94-17.066-9.62 2.444-18.86 5.16-27.48 10.476q-.52.316-.17.868l2.34 3.582q.31.484.8.259c14.52-6.736 30.08-11.614 45.78-12.538q38.8-2.275 74.2 16.841M54.58 214.904c4.35-13.754 13.27-29.75 21.04-43.336q.08-.135-.04-.237-.12-.09-.21.034c-12.92 18.272-23.58 40.78-27.36 64.019q-.02.067.04.078.03.012.06.012.11.011.15-.124 3.1-10.24 6.32-20.446m47.04 85.5a.27.304 0 0 1 .46-.01q1.1 1.937 2.57 3.683 17.26 20.615 30.59 44.632.64 1.16.66 2.512c.56 43.561 17.31 84.092 49.71 108.796 10.91 8.314 22.01 14.43 34.59 17.54 14.69 3.616 31.81 2.061 44.01-8.032 11.14-9.226 17.63-24.524 17.01-39.968-.79-19.477-14.24-35.631-31.65-38.256-12.55-1.904-25.22 3.166-31.59 16.165q-5.79 11.795 1.22 22.08c5.44 7.975 16.31 8.076 20.95-1.195 2.91-5.824-7.03-8.178-3.8-12.335 6.64-8.55 17.8-2.94 21.62 5.914q3.89 9.012.48 18.272c-8.41 22.845-36.46 15.658-50.61 6.41-12.07-7.886-22.62-20.694-30.67-33.851-17.47-28.557-21.19-63.715-17.41-97.588 4.34-38.819 9.33-67.668 17.35-115.724q1.32-7.942 2.91-15.794a.26.293 0 0 0-.3-.36c-8.5 1.903-15.33 2.714-24.39 6.928-15.48 7.198-24.91 22.45-34.16 37.298-5.31 8.527-8.8 13.946-13.08 21.009-3.34 5.497-8.41 12.977-12.14 19.86q-.27.495-.67.135-19.75-17.63-43.97-13.236c-9.26 1.678-18.33 6.477-24.17 14.351-7.76 10.465-10.61 25.932-2.7 36.893 4.9 6.792 13.08 9.8 20.43 6.77 4.23-1.746 8.18-5.531 7.92-11.164q-.02-.54-.49-.698c-4.68-1.656-10.04-3.661-11.39-9.18-1.1-4.507.95-10.263 4.48-12.753 12.67-8.955 29.76-3.627 40.08 6.624a.355.4-6.817 0 1 .05.54c-9.5 13.766-17.74 29.053-25.81 43.911-15.59 28.703-21.84 68.12 3.47 92.756q7.84 7.637 17.43 10.555c16.54 5.035 40.02.766 46.53-20.536 4.33-14.16-3.15-31.508-17.76-31.08-6.43.18-12.28 5.734-11.88 13.383a1.09 1.228 0 0 0 1.3 1.126c4.33-.98 11.36 2.197 9.95 8.528-1.98 8.933-12.23 10.769-18.94 8.741q-8.38-2.534-12.88-8.617c-14.66-19.804-7.66-44.62 2.36-64.38q8.43-16.604 17.85-32.51 2.39-4.021 4.48-8.144"
       vector-effect="non-scaling-stroke"
       id="path97" />
    <path
       d="M228.91 264.537q-2.56 8.866-4.54 18.294c-3.26 15.535-6.44 32.038-8.03 48.383-.76 7.874-2.64 26.416 7.46 28.703 7.06 1.6 12.35-3.244 16.32-8.922 9.85-14.08 19.25-32.837 25.84-45.983 8.45-16.841 16.09-35.101 21.58-54.286q.13-.461-.3-.416l-16.69 1.836q-.53.056-.7.63-2.32 7.818-5.43 15.287-8.32 20.018-17.77 39.393-7.76 15.884-14.89 30.697-2.37 4.934-1.38-.563c4.16-23.172 8.92-46.085 13.75-69.076.99-4.72 2.34-9.159 3.72-13.687a.28.315 0 0 0-.29-.417l-14.21 1.814a.84.946 0 0 1-.78-1.476c4.02-6.5 7.43-14.216 9.94-21.167 4.33-12.008 6.16-25.492-1.61-36.34-10.47-14.645-28.23-6.219-36.69 6.071-8.34 12.121-12.84 25.369-17.74 41.67-6.75 22.439-29.68 105.056-7.41 119.982q6.15 4.123 13.59.18 11.97-6.33 13.57-22.08 1.08-10.69 1.55-21.459.03-.822-.4-.158c-.56.868-.95 2.422-1.26 3.042-3.38 6.736-7.13 15.715-12.1 21.02-2.96 3.166-5.73 1.431-6.83-2.478-2.05-7.243-1.22-14.971.01-22.338a1.38 1.565-.807 0 1 .47-.913c15.64-14.97 27.05-33.524 38.19-52.72q1.12-1.926 2.35-3.075 1.18-1.104.71.552m82.163-65.13a12.312 13.536 6.288 0 0-15.577-8.234 12.312 13.536 6.288 0 0-7.829 17.26 12.312 13.536 6.288 0 0 15.577 8.234 12.312 13.536 6.288 0 0 7.83-17.26M356.19 324.94c2.6-3.008 7.33-5.892 8.38-10.049 7.86-31 15.94-61.81 23.45-93.025a.6.676 0 0 0-.59-.845l-17.11.473q-.9.022-1.15 1.003l-31.58 124.432a.47.411 73.895 0 0 .02.315q.3.879.96.811c31.13-3.638 56.5-21.764 74-51.165 10.61-17.81 17.8-41.162 12.91-62.239-6.01-25.898-26.12-35.326-48.18-32.86-8.41.936-15.98 2.704-22.42 2.332q-.49-.022-.35.507 2.46 8.877 9.9 11.265c3.35 1.082 7.78.676 11.61.733 13.33.202 23.68 5.823 29.05 20.074 4.16 11.04 1.82 24.523-1.92 35.169-7.59 21.583-28.04 43.595-46.68 53.553q-1.35.72-.3-.484m122.94-13.71a.82.924 0 0 1-.53-1.081l22.06-104.11a.64.71-.182 0 0-.74-.868l-17.28 3.729q-.74.157-.93.98-7.92 34.853-15.64 69.527-2.33 10.476-4.98 20.851-3.13 12.211-13.14 17.28c-2.43 1.228-5.02 1.105-6.63-1.329-2.01-3.053-.87-6.995.01-10.589q6.21-25.38 17.39-76.781 1.68-7.74 3.68-15.388a.31.338-1.58 0 0-.34-.44l-17.36 2.884a1.75 1.96-.171 0 0-1.42 1.42q-5.71 23.577-10.99 46.681c-3.49 15.242-8.02 31.058-11.81 46.671-2.17 8.956-1.88 18.936 5.58 24.738q4.19 3.267 9.5 3.334c12.37.17 22.06-8.775 27.69-20.513q.95-1.972 1.2.259c1.43 12.707 12.07 15.489 21.44 17.798a.25.282 0 0 0 .29-.36q-3.34-11.175-3.44-22.947a1.68 1.893 0 0 0-2.22-1.768q-.73.281-1.39.022"
       vector-effect="non-scaling-stroke"
       id="path99" />
    <path
       d="M329.88 269.696q-.07.293-.34.305-7.43.214-15.97 3.582c-16.32 6.455-29.24 17.303-38.03 33.93-6.28 11.862-7.93 27.17.21 37.85 11.42 14.97 31.4 8.46 40.15-6.387a.2.225 0 0 1 .37.135c-.08 6.804 3.03 12.098 9.55 11.163 8.39-1.205 9.33-12.594 11.23-19.724q.26-.992-.53-.474-1.83 1.217-3.99.868-.75-.113-.57-.946c2.92-13.023 6.77-27.07 9.48-38.414q6.29-26.258 13.57-52.213.24-.856-.55-.777c-17.88 1.825-40.78 3.864-55.18 17.686-7.11 6.827-9.06 14.768-12.33 24.479a.34.383 0 0 0 .52.45c13.6-11.265 27.52-18.564 44.55-21.324q.25-.045.19.225l-2.33 9.586m140.62 78.292c-2.23 4.889-6.05 9.563-8.08 13.146q-2.07 3.65-3.67 7.175-.61 1.33.43.395c5.6-5.036 8.9-12.955 11.72-20.22q.1-.26-.12-.384l-.23-.124q-.03-.022-.05.012m-6.39 1.475q.79-1.802-.29-.202l-10.62 15.894q-2.37 3.549.65.699 5.34-5.024 10.26-16.39m-5.53-.057h-.01q-.06-.045-.2.18l-6.63 10.848q-.32.53.05.057 3.4-4.337 6.85-10.792.1-.18-.06-.293m6.47 20.716c5.47-5.373 7.95-12.64 10.2-20.22q.04-.136-.08-.192-.12-.056-.17.068-2.21 5.001-2.9 6.252c-1.1 2.005-2.92 4.36-4.07 7.007q-1.61 3.706-3.27 6.815-.62 1.171.29.27m14.6-16.672L471 370.89q-.81 1.645.47.44 7.4-6.94 8.3-17.833.03-.338-.12-.045M249 373.638q-2.87-.98-.19.552c10.41 5.948 24.66 8.629 35.4 8.719q.02 0 .02-.023l.01-.281q0-.068-.19-.102-17.81-2.985-35.05-8.865m104.24 74.607q-4.72 1.769-9.69 2.422c-15.86 2.107-31.96 4.54-47.93 4.99q-.25.012-.26.282v.011q-.01.282.23.316c13.14 1.836 25.75 1.273 38.93.586 1.89-.102 4.71-.811 7.11-.473q.16.022 0 .067-3.11.946-6.57 1.555-21.76 3.796-42.69 5.317-2.2.157-.02.53 6.1 1.047 12.69 1.182c43.65.89 99.25-12.943 129.94-51.131q.96-1.195-.25-.338c-1.79 1.273-3.74 2.264-5.46 3.762-7.13 6.185-14.67 10.386-22.66 14.915q-.2.112-.32-.113t.07-.372c9.43-7.074 14.52-11.918 21.71-21.302q.1-.135-.01-.27l-.2-.214a.274.311-8.24 0 0-.37-.022q-6.71 6.432-14.13 11.67c-4.91 3.47-11.33 6.444-16.85 9.79q-1.43.867-.09-.17 9.26-7.074 18.01-15.68 3.1-3.042 4.42-5.092 2.16-3.346-.69-.755c-8.56 7.762-18.38 13.53-28.19 19.387-7.38 4.404-15.22 6.905-23.11 9.812-14.61 5.373-29.21 8.358-44.57 9.248q-8.18.473-16.35.777-.2.012-.21.237v.011q-.01.226.19.248c11.1 1.611 22.59 1.082 35.13.484q3.21-.146 12.15-1.87a.092.104 0 0 1 .04.203"
       vector-effect="non-scaling-stroke"
       id="path101" />
    <path
       d="M410.27 422.01q-.54.472-1.02 1.08-.48.62.15.215.8-.518 1.11-1.014.63-1.025-.24-.282m64.92 15.647c-15.71 13.969-30.6 25.55-50.38 36.713-6.2 3.492-13.03 6.612-19.61 9.834q-8.28 4.055-15.03 6.488c-45.46 16.357-91.59 21.404-139.09 12.37q-19.63-3.74-32.36-8.055c-18.78-6.354-37.29-16.143-54.29-27.07q-10.86-6.973-28.03-23.408-.27-.27-.24.135.03.27.24.507c6.98 8.122 15.17 15.027 23.31 21.595q6.94 5.61 14.01 9.902 28.9 17.54 61.06 25.808 25.84 6.635 43.52 8.099 60.57 4.99 119.69-19.308c7.34-3.02 15.12-6.95 22.6-10.668q9.67-4.799 16.43-9.192 16.44-10.713 31.21-24.265 12.94-11.873 16.32-16.773 1.66-2.4 3.53-4.574.12-.135 0-.281v-.012q-.12-.135-.25-.01c-4.24 3.998-8.54 8.527-12.64 12.165"
       vector-effect="non-scaling-stroke"
       id="path103" />
    <path
       d="M271.68 540.426q-5.88.44-11.77-.158c-23.04-2.32-44.77-8.347-67.03-15.06q-.15-.046-.19.112v.011q-.04.158.1.214c7.71 2.997 15.6 6.579 23.15 8.877q14.94 4.562 27.86 7.243c21.95 4.551 44.65 5.745 67.25 5.092 34.2-.98 68.26-9.249 100.42-22.147q15.21-6.106 29.4-14.768c16.25-9.925 29.74-18.925 43.15-32.162q.04-.045.03-.1v-.069q-.02-.135-.12-.056-16.84 12.91-23.04 16.909-12 7.75-30.28 17.19-8.7 4.495-18.54 8.449c-19.59 7.885-32.27 11.918-48.9 16.199q-.24.067-.29-.203v-.011q-.06-.26.18-.316 15.24-3.706 26.61-8.29c11.47-4.63 23.79-9.137 34.3-14.645 10.46-5.497 19.86-11.806 30.03-18.779q6.91-4.731 13.83-10.499c7.35-6.116 14.11-11.49 21.2-19.127q.12-.124.02-.26l-.01-.01q-.1-.136-.22-.023c-3.38 2.748-6.76 6.049-9.87 8.561q-10.09 8.156-16.55 13.067c-11.06 8.415-22.53 14.814-35.9 22.09-10.16 5.52-19.64 9.463-29.94 13.08-20.81 7.322-41.72 13.585-63.5 15.793q-18.03 1.836-27.76 2.174-17.14.597-37.85-2.107-10.33-1.34-20.66-2.67c-9.68-1.239-19.58-4.077-29.53-5.654q-.14-.023-.16.123v.012q-.03.146.11.191c19.39 5.385 35.66 9.17 54.48 11.57q.79.1-.01.157"
       vector-effect="non-scaling-stroke"
       id="path105" />
    <path
       d="M437.18 495.4q-33.87 19.083-70.88 28.523c-6.24 1.588-14.36 3.864-21.75 5.047q-38.36 6.128-76.84 2.196c-11.71-1.205-24.28-4.089-36.39-6.612-15.6-3.245-32-9.485-46.34-15.568q-.22-.102-.31.146l-.01.011q-.09.237.12.35c25.53 14.07 54.83 21.268 82.7 25.605 2.54.394 5.54.416 8.31.822q10.97 1.588 22.01 1.43c32.86-.45 64.62-6.218 95.77-17.64q41.76-15.31 78.78-45.015c1.69-1.352 3.25-3.3 5.07-4.776q.14-.113.04-.26l-.01-.01q-.1-.147-.23-.045c-1.72 1.374-3.18 3.176-4.87 4.359-11.33 7.908-22.83 14.475-35.17 21.437m-262.196-15.612a1.49.141 34.148 0 0-1.167-.96 1.49.141 34.148 0 0-1.301-.71 1.49.141 34.148 0 0 1.167.96 1.49.141 34.148 0 0 1.301.71"
       vector-effect="non-scaling-stroke"
       id="path107" />
    <path
       d="M194.37 490.218c-6.12-3.064-12.37-6.083-18.3-9.609q-.15-.09-.23.09-.08.18.07.26 12.22 6.961 19.98 10.949 18.66 9.575 39.66 15.084 23.43 6.15 40.75 7.795 63.46 6.027 124.3-21.257 12.45-5.587 25.67-14.52.2-.135.08-.36v-.012q-.11-.225-.32-.101c-5.62 3.323-11.33 6.826-17.01 9.564-42.1 20.243-90.78 29.378-135.97 23.915q-20.13-2.422-44.75-8.764-5.32-1.375-21.89-7.728-6.14-2.354-12.04-5.306m18.66 37.467c.92.226 1.91.451 2.77.316q.34-.057 0-.124-1.6-.316-2.77-.237-.13.012 0 .045M547.4 243.72c3.07-6.58 4.74-15.873 1.63-22.598-4.23-9.158-15.97-9.845-23.21-4.709q-.43.316-.55.88L513.49 276.5q-.12.598.36.305c13.68-8.122 26.12-17.146 33.55-33.085m-395.97-26.552q-19.6 32.646-39.3 65.213-.29.473.09.856c9.85 9.755 15.95 19.207 23.65 29.762a.75.845 0 0 0 1.32-.406q4.33-34.166 10.58-68.389 2.8-15.365 6.72-30.032.47-1.78-.84-.642c-.79.687-1.7 2.77-2.22 3.638m71.93 17.799c1.96-4.427 9.74-23.228 1.6-24.806-8.38-1.633-15.17 19.748-17 25.403-6.34 19.713-11.55 39.495-15.86 59.895q-.05.248.15.327.16.068.3.023c.08-.023 4.3-9.114 4.93-10.195q14.25-24.468 25.88-50.647m93.27 80.837q5.12-13.214 7.52-27.182a.39.44 0 0 0-.44-.519c-14.07 2.377-25.45 13.44-31.52 27.464-2.52 5.824-3.65 13.912 1.55 18.306 5.37 4.54 13.44-1.555 16.97-6.41q3-4.123 5.92-11.66"
       vector-effect="non-scaling-stroke"
       id="path109" />
  </g>
  <path
     d="m 569.77,432.204 c -29.36,61.968 -78.43,107.884 -135.49,134.762 -54.85,25.83 -115.17,37.13 -174.23,28.906 -16.846,-2.351 -35.083,-6.666 -54.71,-12.944 C 122.55,556.433 49.88,494.341 17.35,402.51 1.24,357.045 -3.73,305.62 2.77,258.567 c 3.08,-22.32 9.134,-44.857 18.16,-67.612 3.68,-9.294 9.34,-20.953 13.2,-28.906 3.394,-7 7.384,-14.123 11.97,-21.37 17.414,-27.502 37.73,-50.835 60.95,-70 44.13,-36.42 96.78,-61 151.24,-68.096 39.04,-5.1 77.874,-2.647 116.5,7.356 29.23,7.57 57.06,20.863 83.52,36.543 10.91,6.478 20.52,14.205 30.48,22.316 41,33.4 71.3,75.667 91.3,127.62 3.067,7.983 5.497,14.975 7.29,20.976 14.59,48.968 14.64,102.77 3.66,152.684 -4.83,21.922 -13.25,45.195 -21.27,62.126 z M 388.69,58.704 c 20.24,6.951 40.03,16.245 58.16,28.557 5.10769,3.462876 10.18133,6.98909 15.22,10.578 2.36392,1.680286 4.69449,3.41938 6.99,5.216 0.08,0.067 0.15,0.056 0.21,-0.034 h 0.01 c 0.06,-0.09 0.054,-0.174 -0.02,-0.248 C 446.62,80.593 416.25,65.013 387.8,54.255 381.48057,51.863952 375.06718,49.800453 368.58,48.071 320.96,35.37 273.4,35.814 225.9,49.4 c -24.19,6.905 -45.88,17.787 -67.2,31.688 -15.31,9.992 -29.85,22.124 -43.67,34.674 -4.36144,3.95977 -8.48701,8.23833 -12.35,12.808 -0.027,0.037 -0.03,0.06 -0.01,0.067 h 0.13 c 0.08,0.008 0.124,0.008 0.13,0 11.34,-11.524 23.12,-21.257 38,-32.274 36.48,-27.002 78.57,-44.09 121.7,-50.917 6.374,-1.014 13.007,-1.686 19.9,-2.016 29.23,-1.42 56.04,1.171 84.55,8.414 7.18,1.825 14.44,4.405 21.61,6.86 z M 214.58,61.33 c -0.047,-0.346 0.134,-0.594 0.54,-0.744 0.147,-0.053 0.187,-0.158 0.12,-0.315 -0.0462,-0.104645 -0.11939,-0.1911 -0.21,-0.248 -0.113,-0.084 -0.266,-0.098 -0.46,-0.045 -1.33953,0.354841 -2.65271,0.802593 -3.93,1.34 -9.39,3.92 -18.13,6.297 -27.86,12.065 -9.93,5.88 -20.69,11.163 -29.72,17.686 -10.166,7.345 -21.426,16.51 -33.78,27.497 -3.91605,3.48551 -7.58178,7.24247 -10.97,11.243 -0.027,0.03 -0.03,0.06 -0.01,0.09 0.008,0.0182 0.0146,0.0369 0.02,0.056 0.027,0.06 0.06,0.071 0.1,0.034 10.18,-9.71 20.76,-18.835 37.52,-31.823 4.98,-3.864 11.3,-8.855 16.8,-11.367 1.39,-0.63 2.98,-1.982 3.93,-2.534 6.147,-3.545 12.31,-7.052 18.49,-10.522 5.58,-3.14 8.59,-4.803 9.03,-4.99 4.371,-1.852 7.78,-3.204 8.83,-3.503 3.75796,-1.118178 7.4433,-2.525825 11.03,-4.213 0.134,-0.061 0.25,-0.03 0.35,0.09 l 0.18,0.202 c -5.35,2.659 -11.36,4.383 -16.24,6.917 -15.21267,7.906946 -29.95663,16.911315 -44.14,26.957 -5.22,3.695 -10.18,7.007 -15.23,11.378 -3.19474,2.7721 -6.4456,5.46114 -9.75,8.065 -0.033,0.023 -0.04,0.049 -0.02,0.08 l 0.15,0.236 c 0.1,0.157 0.217,0.18 0.35,0.067 19.7,-16.322 37.71,-27.599 57.77,-38.604 3.12,-1.713 6.73,-3.03 10.09,-4.642 10.29,-4.934 21.49,-8.358 32.23,-11.828 48.27,-15.58 104.46,-13.653 151.57,3.391 14.727,5.324 26.254,10.172 34.58,14.543 13.467,7.074 23.457,12.995 29.97,17.765 7.46406,5.47208 14.90413,10.9768 22.32,16.514 0.073,0.052 0.134,0.037 0.18,-0.045 h 0.01 c 0.047,-0.076 0.037,-0.143 -0.03,-0.203 -22.15,-19.713 -46.1,-35.079 -72.1,-47.425 -2.00994,-0.950369 -4.05893,-1.792324 -6.14,-2.523 -3.80905,-1.343021 -7.61242,-2.70637 -11.41,-4.09 C 355.08,49.254 329.9,45.3 305.05,45.04 c -13.813,-0.143 -24.563,0.18 -32.25,0.97 -13.02,1.343 -27.516,4.422 -43.49,9.236 -3.41,1.026 -10.4,2.681 -14.73,6.083 z m 183.99,2.331 c -0.16891,-0.271446 -0.44578,-0.431577 -0.74,-0.428 -0.313,-0.016 -0.346,0.09 -0.1,0.316 2.18,1.96 4.51,2.365 6.96,3.728 0.747,0.413 1.724,0.882 2.93,1.408 17.367,7.532 34.344,17.87 50.93,31.013 2.19,1.735 4.76,4.54 7.47,6.42 0.0329,0.005 0.0565,-0.0346 0.04,-0.067 -19.9,-19.263 -41.13,-31.406 -66.73,-41.748 -0.30574,-0.121246 -0.57104,-0.345353 -0.76,-0.642 z M 81.4,237.727 c 8.34,-29.075 22.8,-55.198 40.86,-78.021 5.307,-6.707 9.014,-11.18 11.12,-13.417 33.72,-35.788 77.94,-57.879 123.34,-66.395 22.667,-4.251 44.36,-5.423 65.08,-3.515 29.054,2.681 57.364,10.874 84.93,24.58 35.9,17.844 70.22,49.228 91.47,86.763 0.054,0.097 0.127,0.12 0.22,0.067 v -0.01 c 0.094,-0.054 0.117,-0.133 0.07,-0.238 -2.15,-5.181 -4.05,-10.667 -6.99,-15.275 C 475.32,146.909 455.56,125.765 430.86,108.912 408.99,93.998 384.51,80.829 360.81,73.732 317.33,60.7 270.34,62.85 227.8,77.89 196.53,88.93 164.9,108.305 140.24,132.705 111.98,160.664 89,196.7 80.77,237.749 c -0.007,0.037 0.003,0.06 0.03,0.068 l 0.3,0.09 c 0.154,0.052 0.254,-0.008 0.3,-0.18 z m 39.56,-40.07 c -0.59,1.307 -1.58,2.884 -2.13,4.36 -0.24,0.66 -0.18,0.698 0.18,0.113 20.19,-33.198 46.83,-60.425 79.02,-77.954 25.24,-13.754 53.87,-23.588 81.98,-26.09 49.8,-4.426 99.3,8.314 141.91,37.817 16.41,11.366 30.1,26.766 42.7,41.196 1.78,2.042 3.69,4.566 5.73,7.57 0.08,0.12 0.177,0.139 0.29,0.056 l 0.01,-0.011 c 0.107,-0.076 0.127,-0.18 0.06,-0.315 -9.67,-19.24 -24.5,-35.631 -40.55,-48.44 -7.02,-5.603 -11.483,-9.023 -13.39,-10.262 -48.51,-31.564 -105.93,-43.336 -161.05,-30.73 -9.046,2.064 -15.443,3.72 -19.19,4.967 -35.56,11.84 -69.45,32.973 -94.63,64.109 -8.826,10.911 -15.806,22.116 -20.94,33.614 z M 486.99,121.18 c -1.604,-1.4471 -3.23778,-2.85182 -4.9,-4.213 -0.08,-0.068 -0.15,-0.056 -0.21,0.034 h -0.01 c -0.053,0.09 -0.023,0.187 0.09,0.293 9.51351,9.1913 18.2172,19.39562 25.99,30.471 0.047,0.068 0.084,0.068 0.11,0 0.0132,-0.0494 0.006,-0.10201 -0.02,-0.146 -6.14,-9.936 -11.75,-18.024 -21.05,-26.439 z M 365.5,139.53 c 2.087,0.781 6.974,2.835 14.66,6.162 0.16,0.068 0.274,0.012 0.34,-0.169 l 0.13,-0.326 c 0.0549,-0.14973 -0.002,-0.32186 -0.13,-0.395 -6.686,-3.778 -14.013,-7.06 -21.98,-9.845 -41.72,-14.577 -88.33,-13.09 -128.69,6.297 -2.046,0.976 -3.886,1.994 -5.52,3.053 -1.153,0.743 -1.076,0.975 0.23,0.698 1.29,-0.27 3.11,-1.453 4.42,-1.994 17.77,-7.22 34.61,-12.706 53.36,-14.261 28.25,-2.354 56.46,0.732 83.18,10.78 z m -32.47,14.758 c 29.02,6.206 56.59,21.966 80.8,40.463 1.127,0.856 1.27,0.683 0.43,-0.518 -4.7,-6.76 -12.75,-13.045 -19.12,-17.72 -53.71,-39.46 -119.68,-43.606 -176.26,-7.378 -7.4,4.73 -16.33,11.422 -20.86,19.747 -0.246,0.45 -0.186,0.51 0.18,0.18 11.73,-10.307 25.35,-17.742 39.12,-23.994 31.18,-14.171 63.084,-17.765 95.71,-10.78 z m 68.05,-3.38 c -0.593,-0.346 -0.66,-0.244 -0.2,0.304 0.394,0.473 0.934,0.964 1.62,1.476 10.25962,7.53778 19.7944,16.25883 28.45,26.022 5.04496,5.69041 9.90743,11.54004 14.58,17.54 0.474,0.6 0.57,0.532 0.29,-0.203 -1.18,-3.2 -3.14,-5.655 -5.1,-8.427 -10.8,-15.275 -24.013,-27.513 -39.64,-36.712 z m 108.6,144.022 c 1.94,-0.174 3.62,0.022 5.04,0.586 14.56,5.756 23.55476,19.56691 23.26,36.813 -0.36524,21.36991 -13.64,39.1 -30.66,47.02 -17.21,8.01 -39.36,5.137 -57,0.586 -23.63,-6.094 -46.2,-12.628 -71.02,-17.483 -16.44,-3.215 -32.606,-3.666 -48.5,-1.352 -9.43,1.374 -22.79,7.322 -29.47,15.388 -15.49,18.688 -7.46,43.955 12.98,50.76 11.55,3.84 23.19,2.647 34.68,-1.916 12.69689,-5.05021 24.88455,-11.59756 36.36,-19.533 0.27764,-0.1925 0.23598,-0.66149 -0.07,-0.788 -9.44,-3.887 -23.23,-6.59 -32.96,-2.75 -4.32,1.705 -8.623,3.429 -12.91,5.172 -7.65,3.097 -21.36,3.942 -24.51,-7.03 -3.6,-12.526 12.2,-19.375 20.41,-20.67 9.35914,-1.47205 18.84315,-1.64668 28.24,-0.52 26.4,3.155 52.22,11.074 78,17.98 21.17,5.677 47.6,9.992 68.99,2.737 28.88,-9.79 50.01,-39.957 47.21,-74.912 -1.19,-14.937 -9.14,-29.818 -19.48,-39.19 -0.43548,-0.39328 -0.41552,-1.14666 0.04,-1.51 10.26,-8.212 18.91,-15.568 25.36,-28.117 3.94,-7.66 6.157,-15.227 6.65,-22.699 1.75,-26.427 -18.75,-45.025 -41.02,-35.957 -0.14102,0.0574 -0.28275,-0.0832 -0.25,-0.248 l 7.66,-37.85 c 0.0194,-0.0693 -0.0384,-0.13451 -0.1,-0.113 l -18.46,4.134 c -0.49824,0.10882 -0.89354,0.5366 -1.01,1.093 -4.406,21.651 -8.8,43.388 -13.18,65.213 -2.39,11.918 -5.58,25.582 -8.17,38.458 -2.34,11.592 -5.94,26.642 -8.22,40.17 -2.63,15.569 -14.65073,68.82106 4.64208,72.26811 1.93645,0.34599 6.7501,-0.6693 10.93104,-2.41783 7.1489,-2.98977 13.51395,-7.3619 8.1974,-5.22774 -15.3619,6.16655 -8.19772,-43.60389 -2.25052,-77.50854 0.067,-0.36 0.264,-0.557 0.59,-0.586 z M 365.47,186.888 c 1.42,0.766 2.657,1.374 3.71,1.825 0.594,0.263 1.08,0.105 1.46,-0.473 l 1.57,-2.366 c 0.30995,-0.46389 0.18228,-1.12963 -0.27,-1.408 C 340.56,165.462 304.92,158.546 270,167.4 c -9.62,2.444 -18.86,5.16 -27.48,10.476 -0.346,0.21 -0.403,0.5 -0.17,0.868 l 2.34,3.582 c 0.207,0.322 0.474,0.409 0.8,0.259 14.52,-6.736 30.08,-11.614 45.78,-12.538 25.867,-1.517 50.6,4.096 74.2,16.841 z M 54.58,214.904 c 4.35,-13.754 13.27,-29.75 21.04,-43.336 0.054,-0.09 0.04,-0.17 -0.04,-0.237 -0.08,-0.06 -0.15,-0.05 -0.21,0.034 -12.92,18.272 -23.58,40.78 -27.36,64.019 -0.013,0.045 0,0.07 0.04,0.078 0.01904,0.008 0.03941,0.0119 0.06,0.012 0.074,0.008 0.124,-0.034 0.15,-0.124 2.067415,-6.8274 4.174117,-13.64285 6.32,-20.446 z m 47.04,85.5 c 0.10207,-0.19539 0.35131,-0.2008 0.46,-0.01 0.75097,1.31676 1.61152,2.54999 2.57,3.683 11.47939,13.7035 21.72604,28.65376 30.59,44.632 0.427,0.772 0.647,1.61 0.66,2.512 0.56,43.561 17.31,84.092 49.71,108.796 10.91,8.314 22.01,14.43 34.59,17.54 14.69,3.616 31.81,2.061 44.01,-8.032 11.14,-9.226 17.63,-24.524 17.01,-39.968 -0.79,-19.477 -14.24,-35.631 -31.65,-38.256 -12.55,-1.904 -25.22,3.166 -31.59,16.165 -3.86,7.863 -3.453,15.223 1.22,22.08 5.44,7.975 16.31,8.076 20.95,-1.195 2.91,-5.824 -7.03,-8.178 -3.8,-12.335 6.64,-8.55 17.8,-2.94 21.62,5.914 2.594,6.008 2.754,12.099 0.48,18.272 -8.41,22.845 -36.46,15.658 -50.61,6.41 -12.07,-7.886 -22.62,-20.694 -30.67,-33.851 -17.47,-28.557 -21.19,-63.715 -17.41,-97.588 4.34,-38.819 9.33,-67.668 17.35,-115.725 0.88,-5.294 1.85,-10.56 2.91,-15.793 0.0467,-0.20746 -0.11334,-0.3995 -0.3,-0.36 -8.5,1.903 -15.33,2.714 -24.39,6.928 -15.48,7.198 -24.91,22.45 -34.16,37.298 -5.31,8.527 -8.8,13.946 -13.08,21.009 -3.34,5.497 -8.41,12.977 -12.14,19.86 -0.18,0.33 -0.403,0.375 -0.67,0.135 -13.166,-11.754 -27.823,-16.165 -43.97,-13.236 -9.26,1.678 -18.33,6.477 -24.17,14.351 -7.76,10.465 -10.61,25.932 -2.7,36.893 4.9,6.792 13.08,9.8 20.43,6.77 4.23,-1.746 8.18,-5.531 7.92,-11.164 -0.013,-0.36 -0.176,-0.593 -0.49,-0.698 -4.68,-1.656 -10.04,-3.661 -11.39,-9.18 -1.1,-4.507 0.95,-10.263 4.48,-12.753 12.67,-8.955 29.76,-3.627 40.08,6.624 0.14,0.14 0.162,0.377 0.05,0.54 -9.5,13.766 -17.74,29.053 -25.81,43.911 -15.59,28.703 -21.84,68.12 3.47,92.756 5.227,5.091 11.037,8.61 17.43,10.555 16.54,5.035 40.02,0.766 46.53,-20.536 4.33,-14.16 -3.15,-31.508 -17.76,-31.08 -6.43,0.18 -12.28,5.734 -11.88,13.383 0.04212,0.74089 0.653637,1.27055 1.3,1.126 4.33,-0.98 11.36,2.197 9.95,8.528 -1.98,8.933 -12.23,10.769 -18.94,8.741 -5.586,-1.69 -9.88,-4.562 -12.88,-8.617 -14.66,-19.804 -7.66,-44.62 2.36,-64.38 5.6171,-11.06418 11.570625,-21.90726 17.85,-32.51 1.584327,-2.66361 3.07851,-5.37981 4.48,-8.144 z m 127.29,-35.867 c -1.73525,6.02534 -3.24986,12.12849 -4.54,18.294 -3.26,15.535 -6.44,32.038 -8.03,48.383 -0.76,7.874 -2.64,26.416 7.46,28.703 7.06,1.6 12.35,-3.244 16.32,-8.922 9.85,-14.08 19.25,-32.837 25.84,-45.983 8.45,-16.841 16.09,-35.101 21.58,-54.286 0.087,-0.308 -0.013,-0.447 -0.3,-0.416 l -16.69,1.836 c -0.353,0.037 -0.586,0.248 -0.7,0.63 -1.54583,5.20976 -3.35888,10.31401 -5.43,15.287 -5.5457,13.34287 -11.47212,26.4807 -17.77,39.393 -4.9918,10.21478 -9.95516,20.44716 -14.89,30.697 -1.58,3.29 -2.04,3.102 -1.38,-0.563 4.16,-23.172 8.92,-46.085 13.75,-69.076 0.99,-4.72 2.34,-9.159 3.72,-13.687 0.0667,-0.21625 -0.0874,-0.43784 -0.29,-0.417 l -14.21,1.814 c -0.71249,0.0839 -1.18523,-0.81071 -0.78,-1.476 4.02,-6.5 7.43,-14.216 9.94,-21.167 4.33,-12.008 6.16,-25.492 -1.61,-36.34 -10.47,-14.645 -28.23,-6.219 -36.69,6.071 -8.34,12.121 -12.84,25.369 -17.74,41.67 -6.75,22.439 -29.68,105.056 -7.41,119.982 4.1,2.748 8.63,2.808 13.59,0.18 7.98,-4.22 12.504,-11.58 13.57,-22.08 0.72041,-7.13247 1.23734,-14.28916 1.55,-21.459 0.02,-0.548 -0.113,-0.601 -0.4,-0.158 -0.56,0.868 -0.95,2.422 -1.26,3.042 -3.38,6.736 -7.13,15.715 -12.1,21.02 -2.96,3.166 -5.73,1.431 -6.83,-2.478 -2.05,-7.243 -1.22,-14.971 0.01,-22.338 0.058,-0.357 0.225,-0.68 0.47,-0.913 15.64,-14.97 27.05,-33.524 38.19,-52.72 0.747,-1.284 1.53,-2.309 2.35,-3.075 0.787,-0.737 1.024,-0.552 0.71,0.552 z m 127.28,60.403 c 2.6,-3.008 7.33,-5.892 8.38,-10.049 7.86,-31 15.94,-61.81 23.45,-93.025 0.0991,-0.43202 -0.19401,-0.85175 -0.59,-0.845 l -17.11,0.473 c -0.6,0.015 -0.983,0.35 -1.15,1.003 l -31.58,124.432 c -0.0258,0.10446 -0.0187,0.21574 0.02,0.315 0.2,0.586 0.52,0.856 0.96,0.811 31.13,-3.638 56.5,-21.764 74,-51.165 10.61,-17.81 17.8,-41.162 12.91,-62.239 -6.01,-25.898 -26.12,-35.326 -48.18,-32.86 -8.41,0.936 -15.98,2.704 -22.42,2.332 -0.326,-0.015 -0.443,0.154 -0.35,0.507 1.64,5.918 4.94,9.672 9.9,11.265 3.35,1.082 7.78,0.676 11.61,0.733 13.33,0.202 23.68,5.823 29.05,20.074 4.16,11.04 1.82,24.523 -1.92,35.169 -7.59,21.583 -28.04,43.595 -46.68,53.553 -0.9,0.48 -1,0.319 -0.3,-0.484 z m 122.94,-13.71 c -0.39581,-0.15484 -0.62437,-0.62101 -0.53,-1.081 l 22.06,-104.11 c 0.10764,-0.50643 -0.28621,-0.96841 -0.74,-0.868 l -17.28,3.729 c -0.493,0.105 -0.803,0.431 -0.93,0.98 -5.26384,23.16428 -10.47719,46.34 -15.64,69.527 -1.55288,6.98224 -3.21313,13.93362 -4.98,20.851 -2.086,8.14 -6.466,13.901 -13.14,17.28 -2.43,1.228 -5.02,1.105 -6.63,-1.329 -2.01,-3.053 -0.87,-6.995 0.01,-10.589 4.14,-16.92 9.937,-42.513 17.39,-76.781 1.12,-5.16 2.347,-10.29 3.68,-15.388 0.07,-0.238 -0.113,-0.474 -0.34,-0.44 l -17.36,2.884 c -0.68048,0.1164 -1.23665,0.67258 -1.42,1.42 -3.76251,15.53049 -7.42594,31.09122 -10.99,46.681 -3.49,15.242 -8.02,31.058 -11.81,46.671 -2.17,8.956 -1.88,18.936 5.58,24.738 2.794,2.177 5.96,3.289 9.5,3.334 12.37,0.17 22.06,-8.775 27.69,-20.513 0.634,-1.315 1.034,-1.228 1.2,0.259 1.43,12.707 4.54926,19.82365 13.91926,22.13265 0.1868,0.0442 0.91126,-3.14039 0.85439,-3.34592 1.2945,-7.78168 3.57667,-16.48975 3.51635,-24.29573 -0.0148,-1.28612 -1.13911,-2.18154 -2.22,-1.768 -0.486,0.187 -0.95,0.195 -1.39,0.022 z M 329.88,269.696 c -0.047,0.195 -0.16,0.297 -0.34,0.305 -4.953,0.142 -10.276,1.336 -15.97,3.582 -16.32,6.455 -29.24,17.303 -38.03,33.93 -6.28,11.862 -7.93,27.17 0.21,37.85 11.42,14.97 31.4,8.46 40.15,-6.387 0.11,-0.203 0.387,-0.102 0.37,0.135 -0.08,6.804 3.03,12.098 9.55,11.163 8.39,-1.205 9.33,-12.594 11.23,-19.724 0.174,-0.662 -0.003,-0.82 -0.53,-0.474 -1.22,0.811 -2.55,1.1 -3.99,0.868 -0.5,-0.076 -0.69,-0.391 -0.57,-0.946 2.92,-13.023 6.77,-27.07 9.48,-38.414 4.1946,-17.51062 8.71896,-34.91888 13.57,-52.213 0.16,-0.57 -0.023,-0.83 -0.55,-0.777 -17.88,1.825 -40.78,3.864 -55.18,17.686 -7.11,6.827 -9.06,14.768 -12.33,24.479 -0.131,0.36 0.244,0.686 0.52,0.45 13.6,-11.265 27.52,-18.564 44.55,-21.324 0.167,-0.03 0.23,0.045 0.19,0.225 z m 140.62,78.292 c -2.23,4.889 -6.05,9.563 -8.08,13.146 -1.32443,2.32422 -2.54917,4.71863 -3.67,7.175 -0.406,0.886 -0.263,1.018 0.43,0.395 5.6,-5.036 8.9,-12.955 11.72,-20.22 0.067,-0.174 0.027,-0.302 -0.12,-0.384 l -0.23,-0.124 c -0.02,-0.015 -0.037,-0.011 -0.05,0.012 z m -6.39,1.475 c 0.527,-1.202 0.43,-1.27 -0.29,-0.202 l -10.62,15.894 c -1.58,2.366 -1.363,2.598 0.65,0.699 3.56,-3.35 6.98,-8.814 10.26,-16.39 z m -5.53,-0.056 h -0.01 c -0.04,-0.03 -0.106,0.03 -0.2,0.18 l -6.63,10.848 c -0.213,0.353 -0.196,0.372 0.05,0.057 2.267,-2.892 4.55,-6.489 6.85,-10.792 0.067,-0.12 0.047,-0.219 -0.06,-0.293 z m 6.47,20.716 c 5.47,-5.373 7.95,-12.64 10.2,-20.22 0.027,-0.09 0,-0.155 -0.08,-0.192 -0.08,-0.038 -0.136,-0.016 -0.17,0.068 -1.473,3.334 -2.44,5.418 -2.9,6.252 -1.1,2.005 -2.92,4.36 -4.07,7.007 -1.00261,2.32351 -2.09362,4.59729 -3.27,6.815 -0.413,0.78 -0.316,0.87 0.29,0.27 z m 14.6,-16.672 -8.65,17.439 c -0.54,1.096 -0.383,1.243 0.47,0.44 4.934,-4.627 7.7,-10.571 8.3,-17.833 0.02,-0.225 -0.02,-0.24 -0.12,-0.045 z M 249,373.638 c -1.913,-0.654 -1.976,-0.47 -0.19,0.552 10.41,5.948 24.66,8.629 35.4,8.719 0.014,0 0.02,-0.008 0.02,-0.023 l 0.01,-0.281 c 0,-0.045 -0.063,-0.08 -0.19,-0.102 -11.85988,-1.98658 -23.57458,-4.94951 -35.05,-8.865 z m 104.24,74.607 c -3.14776,1.17935 -6.39484,1.99095 -9.69,2.422 -15.86,2.107 -31.96,4.54 -47.93,4.99 -0.166,0.009 -0.253,0.102 -0.26,0.282 v 0.011 c -0.007,0.187 0.07,0.293 0.23,0.316 13.14,1.836 25.75,1.273 38.93,0.586 1.89,-0.102 4.71,-0.811 7.11,-0.473 0.107,0.014 0.107,0.037 0,0.067 -2.16331,0.65234 -4.35656,1.17144 -6.57,1.555 -14.506,2.53 -28.736,4.303 -42.69,5.317 -1.466,0.105 -1.473,0.281 -0.02,0.53 4.067,0.698 8.297,1.092 12.69,1.182 43.65,0.89 99.25,-12.943 129.94,-51.131 0.64,-0.797 0.557,-0.91 -0.25,-0.338 -1.79,1.273 -3.74,2.264 -5.46,3.762 -7.13,6.185 -14.67,10.386 -22.66,14.915 -0.133,0.074 -0.24,0.037 -0.32,-0.113 -0.08,-0.15 -0.056,-0.275 0.07,-0.372 9.43,-7.074 14.52,-11.918 21.71,-21.301 0.067,-0.09 0.064,-0.18 -0.01,-0.27 l -0.2,-0.215 c -0.0998,-0.11395 -0.26013,-0.12348 -0.37,-0.022 -4.45255,4.27085 -9.17501,8.17114 -14.13,11.67 -4.91,3.47 -11.33,6.444 -16.85,9.79 -0.953,0.577 -0.983,0.52 -0.09,-0.17 6.174,-4.716 12.177,-9.943 18.01,-15.68 2.067,-2.028 3.54,-3.726 4.42,-5.092 1.44,-2.23 1.21,-2.483 -0.69,-0.755 -8.56,7.762 -18.38,13.53 -28.19,19.387 -7.38,4.405 -15.22,6.905 -23.11,9.812 -14.61,5.373 -29.21,8.358 -44.57,9.248 -5.44719,0.31538 -10.89748,0.57473 -16.35,0.778 -0.133,0.008 -0.203,0.085 -0.21,0.236 v 0.011 c -0.007,0.15 0.057,0.232 0.19,0.248 11.1,1.611 22.59,1.082 35.13,0.485 2.14,-0.098 6.19,-0.721 12.15,-1.87 0.12,-0.03 0.16,0.172 0.04,0.202 z m 57.03,-26.236 c -0.36,0.316 -0.7,0.676 -1.02,1.082 -0.32,0.412 -0.27,0.484 0.15,0.214 0.534,-0.346 0.904,-0.684 1.11,-1.014 0.42,-0.684 0.34,-0.777 -0.24,-0.282 z m 64.92,15.647 c -15.71,13.969 -30.6,25.55 -50.38,36.713 -6.2,3.492 -13.03,6.612 -19.61,9.834 -5.52,2.703 -10.53,4.866 -15.03,6.488 -45.46,16.357 -91.59,21.404 -139.09,12.37 -13.086,-2.495 -23.873,-5.18 -32.36,-8.055 -18.78,-6.354 -37.29,-16.143 -54.29,-27.07 -7.24,-4.649 -16.583,-12.452 -28.03,-23.408 -0.18,-0.18 -0.26,-0.135 -0.24,0.135 0.02,0.18 0.1,0.35 0.24,0.507 6.98,8.122 15.17,15.027 23.31,21.595 4.627,3.74 9.297,7.04 14.01,9.902 19.267,11.693 39.62,20.294 61.06,25.808 17.227,4.422 31.734,7.122 43.52,8.099 40.38,3.327 80.277,-3.11 119.69,-19.308 7.34,-3.02 15.12,-6.95 22.6,-10.668 6.447,-3.2 11.924,-6.263 16.43,-9.192 10.95911,-7.14138 21.39549,-15.25541 31.21,-24.265 8.627,-7.916 14.067,-13.506 16.32,-16.773 1.10293,-1.59494 2.2813,-3.12182 3.53,-4.574 0.08,-0.09 0.08,-0.184 0,-0.281 v -0.012 c -0.08,-0.09 -0.163,-0.094 -0.25,-0.01 -4.24,3.998 -8.54,8.527 -12.64,12.165 z m -203.51,102.77 c -3.921,0.29278 -7.85631,0.23995 -11.77,-0.158 -23.04,-2.32 -44.77,-8.347 -67.03,-15.06 -0.1,-0.031 -0.163,0.007 -0.19,0.112 v 0.011 c -0.027,0.105 0.007,0.176 0.1,0.214 7.71,2.997 15.6,6.579 23.15,8.877 9.96,3.041 19.247,5.455 27.86,7.243 21.95,4.551 44.65,5.745 67.25,5.092 34.2,-0.98 68.26,-9.249 100.42,-22.147 10.12319,-4.06185 19.95248,-8.99922 29.4,-14.768 16.25,-9.925 29.74,-18.925 43.15,-32.161 0.0255,-0.0255 0.037,-0.0644 0.03,-0.102 v -0.067 c -0.013,-0.09 -0.053,-0.11 -0.12,-0.057 -11.226,8.607 -18.906,14.242 -23.04,16.909 -8,5.166 -18.093,10.896 -30.28,17.19 -5.8,2.997 -11.98,5.813 -18.54,8.449 -19.59,7.885 -32.27,11.918 -48.9,16.199 -0.16,0.045 -0.256,-0.023 -0.29,-0.203 v -0.011 c -0.04,-0.174 0.02,-0.279 0.18,-0.316 10.16,-2.471 19.03,-5.235 26.61,-8.29 11.47,-4.63 23.79,-9.137 34.3,-14.645 10.46,-5.497 19.86,-11.806 30.03,-18.779 4.607,-3.154 9.217,-6.654 13.83,-10.499 7.35,-6.116 14.11,-11.49 21.2,-19.127 0.08,-0.084 0.087,-0.17 0.02,-0.26 l -0.01,-0.01 c -0.067,-0.09 -0.14,-0.099 -0.22,-0.023 -3.38,2.748 -6.76,6.049 -9.87,8.561 -6.726,5.436 -12.243,9.793 -16.55,13.067 -11.06,8.415 -22.53,14.814 -35.9,22.09 -10.16,5.52 -19.64,9.463 -29.94,13.08 -20.81,7.322 -41.72,13.585 -63.5,15.793 -12.02,1.223 -21.273,1.949 -27.76,2.174 -11.426,0.397 -24.043,-0.304 -37.85,-2.107 -6.886,-0.894 -13.773,-1.784 -20.66,-2.67 -9.68,-1.239 -19.58,-4.077 -29.53,-5.654 -0.093,-0.016 -0.146,0.025 -0.16,0.123 v 0.012 c -0.02,0.097 0.017,0.16 0.11,0.191 19.39,5.385 35.66,9.17 54.48,11.57 0.527,0.067 0.524,0.119 -0.01,0.157 z M 437.18,495.4 c -22.5176,12.69682 -46.31762,22.27424 -70.88,28.523 -6.24,1.588 -14.36,3.864 -21.75,5.047 -25.573,4.084 -51.186,4.816 -76.84,2.196 -11.71,-1.205 -24.28,-4.089 -36.39,-6.612 -15.6,-3.245 -32,-9.485 -46.34,-15.568 -0.146,-0.068 -0.25,-0.02 -0.31,0.146 l -0.01,0.011 c -0.06,0.158 -0.02,0.274 0.12,0.35 25.53,14.07 54.83,21.268 82.7,25.605 2.54,0.394 5.54,0.417 8.31,0.822 7.28743,1.05679 14.64709,1.53495 22.01,1.43 32.86,-0.45 64.62,-6.218 95.77,-17.64 27.84,-10.206 54.1,-25.211 78.78,-45.015 1.69,-1.351 3.25,-3.3 5.07,-4.776 0.093,-0.076 0.107,-0.162 0.04,-0.26 l -0.01,-0.01 c -0.066,-0.098 -0.143,-0.113 -0.23,-0.046 -1.72,1.375 -3.18,3.177 -4.87,4.36 -11.33,7.908 -22.83,14.475 -35.17,21.437 z M 174.984,479.788 c 0.038,-0.069 -0.485,-0.499 -1.167,-0.96 -0.681,-0.463 -1.264,-0.78 -1.301,-0.71 -0.037,0.068 0.485,0.499 1.167,0.96 0.682,0.462 1.264,0.78 1.301,0.71 z m 19.386,10.43 c -6.12,-3.064 -12.37,-6.083 -18.3,-9.609 -0.1,-0.06 -0.176,-0.03 -0.23,0.09 -0.053,0.12 -0.03,0.207 0.07,0.26 8.147,4.64 14.807,8.29 19.98,10.949 12.44,6.383 25.66,11.411 39.66,15.084 15.62,4.1 29.204,6.698 40.75,7.795 42.307,4.017 83.74,-3.069 124.3,-21.257 8.3,-3.725 16.857,-8.566 25.67,-14.52 0.134,-0.09 0.16,-0.211 0.08,-0.36 v -0.012 c -0.073,-0.151 -0.18,-0.185 -0.32,-0.101 -5.62,3.323 -11.33,6.826 -17.01,9.563 -42.1,20.243 -90.78,29.38 -135.97,23.916 -13.42,-1.616 -28.336,-4.537 -44.75,-8.764 -3.546,-0.917 -10.843,-3.492 -21.89,-7.728 -4.08187,-1.56459 -8.09925,-3.33505 -12.04,-5.306 z m 18.66,37.467 c 0.92,0.226 1.91,0.451 2.77,0.316 0.227,-0.038 0.227,-0.08 0,-0.124 -1.066,-0.21 -1.99,-0.29 -2.77,-0.237 -0.087,0.008 -0.087,0.023 0,0.045 z"
     fill="#010907"
     style="stroke-width:1.06136"
     id="path113"
     sodipodi:nodetypes="cccccccccccccccccccccccccccccccccccccccccccccccccccccccccccccccccccccccccccccccccccccccccccccccccccccccccccccccccccccccccccccccccccccccccccccccccccccccccccccccccccccsccccccscccccccccscccccccccccsccccccccssscccccccccccccccccccccccccccccccccccccccccccccccccccccccccccccccccccccccccccccccccccccccccccccccccsccccccccccccccccccccccccccccsccccccccccccccccccccccccccccccccccccccccccccccccccccccccccccccccccccccccccccccccccccccccccccccccccccccccccccccsccccccccccccccccccccccccccccscccccccccccccccccccccccccccccccccccccccccccccccccccccccccccccccccccccccccccccccccccccccccccccccccccccccccccccccc"
     inkscape:export-filename="path113.png"
     inkscape:export-xdpi="325.16"
     inkscape:export-ydpi="325.16" />
  <path
     d="M223.36 234.967q-11.63 26.18-25.88 50.647c-.63 1.081-4.85 10.172-4.93 10.195q-.14.045-.3-.023-.2-.079-.15-.327c4.31-20.4 9.52-40.182 15.86-59.895 1.83-5.655 8.62-27.036 17-25.403 8.14 1.578.36 20.379-1.6 24.806zm-71.93-17.799c.52-.867 1.43-2.951 2.22-3.638q1.31-1.138.84.642-3.92 14.667-6.72 30.032-6.25 34.223-10.58 68.39a.75.845 0 0 1-1.32.405c-7.7-10.555-13.8-20.007-23.65-29.762q-.38-.383-.09-.856 19.7-32.567 39.3-65.213zM547.4 243.72c-7.43 15.94-19.87 24.963-33.55 33.085q-.48.293-.36-.305l11.78-59.208q.12-.563.55-.879c7.24-5.136 18.98-4.45 23.21 4.71 3.11 6.724 1.44 16.018-1.63 22.597zm-230.77 72.084q-2.92 7.536-5.92 11.659c-3.53 4.855-11.6 10.95-16.97 6.41-5.2-4.394-4.07-12.482-1.55-18.306 6.07-14.025 17.45-25.087 31.52-27.464a.39.44 0 0 1 .44.519q-2.4 13.968-7.52 27.182z"
     fill="#010907"
     style="stroke-width:1.06136"
     id="path115" />
</svg>
